# Blender 5.1.0
# www.blender.org
mtllib bullet.mtl
o 球.002
v 0.000000 0.414980 -0.000000
v 0.000000 0.158806 -0.383392
v 0.000000 0.000000 -0.414980
v 0.000000 -0.158806 -0.383392
v 0.000000 -0.383392 -0.158806
v 0.000000 -0.414980 -0.000000
v 0.060772 0.383392 -0.146718
v 0.112293 0.293435 -0.271099
v 0.146718 0.158806 -0.354208
v 0.158806 0.000000 -0.383392
v 0.146718 -0.158806 -0.354208
v 0.112293 -0.293435 -0.271099
v 0.060772 -0.383392 -0.146718
v 0.112293 0.383392 -0.112293
v 0.207490 0.293435 -0.207490
v 0.271099 0.158806 -0.271099
v 0.293435 0.000000 -0.293435
v 0.271099 -0.158806 -0.271099
v 0.207490 -0.293435 -0.207490
v 0.112293 -0.383392 -0.112293
v 0.146718 0.383392 -0.060772
v 0.271099 0.293435 -0.112293
v 0.354208 0.158806 -0.146718
v 0.383392 0.000000 -0.158806
v 0.354208 -0.158806 -0.146718
v 0.271099 -0.293435 -0.112293
v 0.146718 -0.383392 -0.060772
v 0.158806 0.383392 -0.000000
v 0.293435 0.293435 -0.000000
v 0.383392 0.158806 -0.000000
v 0.414980 0.000000 0.000000
v 0.383392 -0.158806 -0.000000
v 0.293435 -0.293435 -0.000000
v 0.158806 -0.383392 -0.000000
v 0.146718 0.383392 0.060772
v 0.271099 0.293435 0.112293
v 0.354208 0.158806 0.146718
v 0.383392 0.000000 0.158806
v 0.354208 -0.158806 0.146718
v 0.271099 -0.293435 0.112293
v 0.146718 -0.383392 0.060772
v 0.112293 0.383392 0.112293
v 0.207490 0.293435 0.207490
v 0.271099 0.158806 0.271099
v 0.293435 0.000000 0.293435
v 0.271099 -0.158806 0.271099
v 0.207490 -0.293435 0.207490
v 0.112293 -0.383392 0.112293
v 0.060772 0.383392 0.146718
v 0.112293 0.293435 0.271099
v 0.146718 0.158806 0.354208
v 0.158806 0.000000 0.383392
v 0.146718 -0.158806 0.354208
v 0.112293 -0.293435 0.271099
v 0.060772 -0.383392 0.146718
v -0.000000 0.383392 0.158806
v -0.000000 0.293435 0.293435
v -0.000000 0.158806 0.383391
v -0.000000 0.000000 0.414980
v -0.000000 -0.158806 0.383391
v -0.000000 -0.293435 0.293435
v -0.000000 -0.383392 0.158806
v -0.060772 0.383392 0.146718
v -0.112293 0.293435 0.271099
v -0.146718 0.158806 0.354208
v -0.158806 0.000000 0.383391
v -0.146718 -0.158806 0.354208
v -0.112293 -0.293435 0.271099
v -0.060772 -0.383392 0.146718
v -0.112293 0.383392 0.112293
v -0.207490 0.293435 0.207490
v -0.271099 0.158806 0.271099
v -0.293435 0.000000 0.293435
v -0.271099 -0.158806 0.271099
v -0.207490 -0.293435 0.207490
v -0.112293 -0.383392 0.112293
v -0.146718 0.383392 0.060772
v -0.271099 0.293435 0.112293
v -0.354208 0.158806 0.146717
v -0.383392 0.000000 0.158806
v -0.354208 -0.158806 0.146717
v -0.271099 -0.293435 0.112293
v -0.146718 -0.383392 0.060772
v -0.158806 0.383392 -0.000000
v -0.293435 0.293435 -0.000000
v -0.383391 0.158806 -0.000000
v -0.414980 0.000000 -0.000000
v -0.383391 -0.158806 -0.000000
v -0.293435 -0.293435 -0.000000
v -0.158806 -0.383392 -0.000000
v -0.146718 0.383392 -0.060773
v -0.271099 0.293435 -0.112293
v -0.354207 0.158806 -0.146718
v -0.383391 0.000000 -0.158806
v -0.354207 -0.158806 -0.146718
v -0.271099 -0.293435 -0.112293
v -0.146718 -0.383392 -0.060773
v -0.112293 0.383392 -0.112293
v -0.207490 0.293435 -0.207490
v -0.271099 0.158806 -0.271099
v -0.293435 0.000000 -0.293435
v -0.271099 -0.158806 -0.271099
v -0.207490 -0.293435 -0.207490
v -0.112293 -0.383392 -0.112293
v -0.060772 0.383392 -0.146718
v -0.112293 0.293435 -0.271099
v -0.146717 0.158806 -0.354208
v -0.158806 0.000000 -0.383392
v -0.146717 -0.158806 -0.354208
v -0.112293 -0.293435 -0.271099
v -0.060772 -0.383392 -0.146718
v 0.000000 0.383392 -0.158806
v 0.000000 0.293435 -0.293435
v 0.000000 -0.293435 -0.293435
v 0.000000 0.584980 -0.000000
v 0.000000 0.222449 -0.541029
v 0.000000 0.000000 -0.584980
v 0.000000 -0.222449 -0.541029
v 0.000000 -0.538969 -0.227332
v 0.000000 -0.584980 -0.000000
v 0.086996 0.538969 -0.210027
v 0.159059 0.411612 -0.384002
v 0.207043 0.222449 -0.499846
v 0.223862 0.000000 -0.540451
v 0.207043 -0.222449 -0.499846
v 0.159059 -0.411612 -0.384002
v 0.086996 -0.538969 -0.210027
v 0.160748 0.538969 -0.160748
v 0.293902 0.411612 -0.293902
v 0.382565 0.222449 -0.382565
v 0.413643 -0.000000 -0.413643
v 0.382565 -0.222449 -0.382565
v 0.293902 -0.411612 -0.293902
v 0.160748 -0.538969 -0.160748
v 0.210027 0.538969 -0.086996
v 0.384002 0.411612 -0.159059
v 0.499846 0.222449 -0.207043
v 0.540451 -0.000000 -0.223862
v 0.499846 -0.222449 -0.207043
v 0.384002 -0.411612 -0.159059
v 0.210027 -0.538969 -0.086996
v 0.227332 0.538969 -0.000000
v 0.415641 0.411612 0.000000
v 0.541029 0.222449 0.000000
v 0.584980 0.000000 0.000000
v 0.541029 -0.222449 0.000000
v 0.415641 -0.411612 0.000000
v 0.227332 -0.538969 -0.000000
v 0.210027 0.538969 0.086996
v 0.384002 0.411612 0.159059
v 0.499846 0.222449 0.207043
v 0.540451 0.000000 0.223862
v 0.499846 -0.222449 0.207043
v 0.384002 -0.411612 0.159059
v 0.210027 -0.538969 0.086996
v 0.160748 0.538969 0.160748
v 0.293902 0.411612 0.293902
v 0.382565 0.222449 0.382565
v 0.413643 0.000000 0.413643
v 0.382565 -0.222449 0.382565
v 0.293902 -0.411612 0.293902
v 0.160748 -0.538969 0.160748
v 0.086996 0.538969 0.210027
v 0.159059 0.411612 0.384002
v 0.207043 0.222449 0.499846
v 0.223862 0.000000 0.540451
v 0.207043 -0.222449 0.499846
v 0.159059 -0.411612 0.384002
v 0.086996 -0.538969 0.210027
v -0.000000 0.538969 0.227331
v -0.000000 0.411612 0.415641
v -0.000000 0.222449 0.541029
v -0.000000 0.000000 0.584980
v -0.000000 -0.222449 0.541029
v -0.000000 -0.411612 0.415641
v -0.000000 -0.538969 0.227331
v -0.086996 0.538969 0.210027
v -0.159059 0.411612 0.384002
v -0.207043 0.222449 0.499845
v -0.223862 0.000000 0.540451
v -0.207043 -0.222449 0.499845
v -0.159059 -0.411612 0.384002
v -0.086996 -0.538969 0.210027
v -0.160748 0.538969 0.160748
v -0.293902 0.411612 0.293902
v -0.382565 0.222449 0.382565
v -0.413644 -0.000000 0.413643
v -0.382565 -0.222449 0.382565
v -0.293902 -0.411612 0.293902
v -0.160748 -0.538969 0.160748
v -0.210027 0.538969 0.086996
v -0.384002 0.411612 0.159059
v -0.499846 0.222449 0.207043
v -0.540451 -0.000000 0.223862
v -0.499846 -0.222449 0.207043
v -0.384002 -0.411612 0.159059
v -0.210027 -0.538969 0.086996
v -0.227331 0.538969 -0.000000
v -0.415641 0.411612 -0.000000
v -0.541029 0.222449 -0.000000
v -0.584980 0.000000 -0.000000
v -0.541029 -0.222449 -0.000000
v -0.415641 -0.411612 -0.000000
v -0.227331 -0.538969 -0.000000
v -0.210027 0.538969 -0.086996
v -0.384002 0.411612 -0.159059
v -0.499845 0.222449 -0.207043
v -0.540451 0.000000 -0.223863
v -0.499845 -0.222449 -0.207043
v -0.384002 -0.411612 -0.159059
v -0.210027 -0.538969 -0.086996
v -0.160748 0.538969 -0.160748
v -0.293902 0.411612 -0.293902
v -0.382565 0.222449 -0.382565
v -0.413643 0.000000 -0.413644
v -0.382565 -0.222449 -0.382565
v -0.293902 -0.411612 -0.293902
v -0.160748 -0.538969 -0.160748
v -0.086996 0.538969 -0.210027
v -0.159058 0.411612 -0.384002
v -0.207043 0.222449 -0.499846
v -0.223862 0.000000 -0.540451
v -0.207043 -0.222449 -0.499846
v -0.159058 -0.411612 -0.384002
v -0.086996 -0.538969 -0.210027
v 0.000000 0.538969 -0.227332
v 0.000000 0.411612 -0.415641
v 0.000000 -0.411612 -0.415641
v 0.000000 1.044980 -0.000000
v 0.000000 0.394660 -0.967577
v 0.000000 0.000000 -1.044980
v 0.000000 -0.394660 -0.967577
v 0.000000 -0.959942 -0.412754
v 0.000000 -1.044980 -0.000000
v 0.157954 0.959942 -0.381335
v 0.285602 0.731386 -0.689504
v 0.370276 0.394660 -0.893925
v 0.399897 0.000000 -0.965436
v 0.370276 -0.394660 -0.893925
v 0.285602 -0.731386 -0.689504
v 0.157954 -0.959942 -0.381335
v 0.291861 0.959942 -0.291861
v 0.527724 0.731386 -0.527724
v 0.684180 0.394660 -0.684180
v 0.738913 -0.000000 -0.738912
v 0.684180 -0.394660 -0.684180
v 0.527724 -0.731386 -0.527724
v 0.291861 -0.959942 -0.291861
v 0.381334 0.959942 -0.157954
v 0.689504 0.731386 -0.285602
v 0.893925 0.394660 -0.370276
v 0.965436 -0.000000 -0.399896
v 0.893925 -0.394660 -0.370276
v 0.689504 -0.731386 -0.285602
v 0.381334 -0.959942 -0.157954
v 0.412753 0.959942 -0.000000
v 0.746314 0.731386 0.000000
v 0.967577 0.394660 0.000000
v 1.044980 0.000000 0.000000
v 0.967577 -0.394660 0.000000
v 0.746314 -0.731386 0.000000
v 0.412753 -0.959942 -0.000000
v 0.381335 0.959942 0.157954
v 0.689504 0.731386 0.285602
v 0.893925 0.394660 0.370276
v 0.965436 0.000000 0.399897
v 0.893925 -0.394660 0.370276
v 0.689504 -0.731386 0.285602
v 0.381334 -0.959942 0.157954
v 0.291861 0.959942 0.291861
v 0.527724 0.731386 0.527724
v 0.684180 0.394660 0.684180
v 0.738912 0.000000 0.738913
v 0.684180 -0.394660 0.684180
v 0.527724 -0.731386 0.527724
v 0.291861 -0.959942 0.291861
v 0.157954 0.959942 0.381334
v 0.285602 0.731386 0.689504
v 0.370276 0.394660 0.893925
v 0.399896 0.000000 0.965436
v 0.370276 -0.394660 0.893925
v 0.285602 -0.731386 0.689504
v 0.157954 -0.959942 0.381334
v -0.000000 0.959942 0.412753
v -0.000000 0.731386 0.746314
v -0.000000 0.394660 0.967577
v -0.000000 0.000000 1.044980
v -0.000000 -0.394660 0.967577
v -0.000000 -0.731386 0.746314
v 0.000000 -0.959942 0.412753
v -0.157954 0.959942 0.381334
v -0.285602 0.731386 0.689504
v -0.370276 0.394660 0.893924
v -0.399897 0.000000 0.965435
v -0.370276 -0.394660 0.893924
v -0.285602 -0.731386 0.689504
v -0.157954 -0.959942 0.381334
v -0.291861 0.959942 0.291861
v -0.527724 0.731386 0.527723
v -0.684180 0.394660 0.684180
v -0.738913 -0.000000 0.738912
v -0.684180 -0.394660 0.684180
v -0.527724 -0.731386 0.527723
v -0.291861 -0.959942 0.291861
v -0.381334 0.959942 0.157954
v -0.689504 0.731386 0.285602
v -0.893925 0.394660 0.370275
v -0.965436 -0.000000 0.399896
v -0.893925 -0.394660 0.370275
v -0.689504 -0.731386 0.285602
v -0.381334 -0.959942 0.157954
v -0.412753 0.959942 -0.000000
v -0.746314 0.731386 -0.000000
v -0.967577 0.394660 -0.000000
v -1.044980 0.000000 -0.000001
v -0.967577 -0.394660 -0.000000
v -0.746314 -0.731386 -0.000000
v -0.412753 -0.959942 -0.000000
v -0.381334 0.959942 -0.157954
v -0.689504 0.731386 -0.285602
v -0.893924 0.394660 -0.370276
v -0.965435 0.000000 -0.399897
v -0.893924 -0.394660 -0.370276
v -0.689504 -0.731386 -0.285602
v -0.381334 -0.959942 -0.157954
v -0.291861 0.959942 -0.291861
v -0.527724 0.731386 -0.527724
v -0.684180 0.394660 -0.684181
v -0.738912 0.000000 -0.738913
v -0.684180 -0.394660 -0.684181
v -0.527723 -0.731386 -0.527724
v -0.291861 -0.959942 -0.291861
v -0.157954 0.959942 -0.381335
v -0.285602 0.731386 -0.689505
v -0.370275 0.394660 -0.893925
v -0.399896 0.000000 -0.965436
v -0.370275 -0.394660 -0.893925
v -0.285602 -0.731386 -0.689505
v -0.157954 -0.959942 -0.381335
v 0.000000 0.959942 -0.412754
v 0.000000 0.731386 -0.746314
v 0.000000 -0.731386 -0.746314
v 0.000000 1.234980 -0.000000
v 0.000000 0.465791 -1.143760
v 0.000000 0.000000 -1.234980
v 0.000000 -0.465791 -1.143760
v 0.000000 -1.133823 -0.489341
v 0.000000 -1.234980 -0.000000
v 0.187263 1.133823 -0.452092
v 0.337870 0.863466 -0.815690
v 0.437698 0.465791 -1.056697
v 0.472606 0.000000 -1.140973
v 0.437698 -0.465791 -1.056697
v 0.337870 -0.863466 -0.815690
v 0.187263 -1.133823 -0.452092
v 0.346016 1.133823 -0.346016
v 0.624302 0.863466 -0.624302
v 0.808761 0.465791 -0.808761
v 0.873263 -0.000000 -0.873263
v 0.808761 -0.465791 -0.808761
v 0.624302 -0.863466 -0.624302
v 0.346016 -1.133823 -0.346016
v 0.452092 1.133823 -0.187263
v 0.815690 0.863466 -0.337870
v 1.056697 0.465791 -0.437698
v 1.140973 -0.000000 -0.472606
v 1.056697 -0.465791 -0.437698
v 0.815690 -0.863466 -0.337870
v 0.452092 -1.133823 -0.187263
v 0.489341 1.133823 0.000000
v 0.882897 0.863466 0.000000
v 1.143760 0.465791 0.000000
v 1.234980 0.000000 0.000000
v 1.143760 -0.465791 0.000000
v 0.882897 -0.863466 0.000000
v 0.489341 -1.133823 -0.000000
v 0.452092 1.133823 0.187263
v 0.815690 0.863466 0.337870
v 1.056697 0.465791 0.437698
v 1.140973 0.000000 0.472606
v 1.056697 -0.465791 0.437698
v 0.815690 -0.863466 0.337870
v 0.452092 -1.133823 0.187263
v 0.346016 1.133823 0.346016
v 0.624302 0.863466 0.624302
v 0.808761 0.465791 0.808761
v 0.873263 0.000000 0.873263
v 0.808761 -0.465791 0.808761
v 0.624302 -0.863466 0.624302
v 0.346016 -1.133823 0.346016
v 0.187263 1.133823 0.452092
v 0.337870 0.863466 0.815690
v 0.437698 0.465791 1.056697
v 0.472606 0.000000 1.140973
v 0.437698 -0.465791 1.056697
v 0.337870 -0.863466 0.815690
v 0.187263 -1.133823 0.452092
v -0.000000 1.133823 0.489341
v -0.000000 0.863466 0.882897
v -0.000000 0.465791 1.143760
v -0.000000 0.000000 1.234980
v -0.000000 -0.465791 1.143760
v -0.000000 -0.863466 0.882897
v 0.000000 -1.133823 0.489341
v -0.187263 1.133823 0.452092
v -0.337870 0.863466 0.815690
v -0.437698 0.465791 1.056696
v -0.472607 0.000000 1.140973
v -0.437698 -0.465791 1.056696
v -0.337870 -0.863466 0.815690
v -0.187263 -1.133823 0.452092
v -0.346016 1.133823 0.346016
v -0.624302 0.863466 0.624302
v -0.808761 0.465791 0.808760
v -0.873263 -0.000000 0.873262
v -0.808761 -0.465791 0.808760
v -0.624302 -0.863466 0.624302
v -0.346016 -1.133823 0.346016
v -0.452092 1.133823 0.187262
v -0.815690 0.863466 0.337869
v -1.056697 0.465791 0.437698
v -1.140973 -0.000000 0.472606
v -1.056697 -0.465791 0.437698
v -0.815690 -0.863466 0.337869
v -0.452092 -1.133823 0.187262
v -0.489341 1.133823 -0.000000
v -0.882897 0.863466 -0.000000
v -1.143760 0.465791 -0.000001
v -1.234980 0.000000 -0.000001
v -1.143760 -0.465791 -0.000001
v -0.882897 -0.863466 -0.000000
v -0.489341 -1.133823 -0.000000
v -0.452092 1.133823 -0.187263
v -0.815690 0.863466 -0.337870
v -1.056696 0.465791 -0.437699
v -1.140972 0.000000 -0.472607
v -1.056696 -0.465791 -0.437699
v -0.815690 -0.863466 -0.337870
v -0.452092 -1.133823 -0.187263
v -0.346016 1.133823 -0.346016
v -0.624302 0.863466 -0.624303
v -0.808760 0.465791 -0.808761
v -0.873262 0.000000 -0.873263
v -0.808760 -0.465791 -0.808761
v -0.624302 -0.863466 -0.624303
v -0.346016 -1.133823 -0.346016
v -0.187262 1.133823 -0.452092
v -0.337869 0.863466 -0.815690
v -0.437698 0.465791 -1.056697
v -0.472606 0.000000 -1.140973
v -0.437698 -0.465791 -1.056697
v -0.337869 -0.863466 -0.815690
v -0.187262 -1.133823 -0.452092
v 0.000000 1.133823 -0.489341
v 0.000000 0.863466 -0.882897
v 0.000000 -0.863466 -0.882897
v -0.000000 0.774980 -0.000000
v -0.000000 0.172388 -0.755281
v -0.000000 0.000000 -0.774980
v 0.000000 -0.172388 -0.755281
v 0.000001 -0.633739 -0.443294
v -0.000000 -0.774980 0.000000
v 0.169642 0.633739 -0.409550
v 0.258859 0.376050 -0.624935
v 0.289034 0.172389 -0.697788
v 0.296573 0.000000 -0.715988
v 0.289034 -0.172389 -0.697788
v 0.258858 -0.376050 -0.624936
v 0.169642 -0.633739 -0.409550
v 0.313457 0.633738 -0.313457
v 0.478306 0.376050 -0.478305
v 0.534064 0.172390 -0.534063
v 0.547994 -0.000000 -0.547994
v 0.534064 -0.172390 -0.534063
v 0.478305 -0.376050 -0.478305
v 0.313456 -0.633739 -0.313457
v 0.409551 0.633738 -0.169642
v 0.624936 0.376049 -0.258858
v 0.697788 0.172389 -0.289033
v 0.715988 -0.000000 -0.296572
v 0.697788 -0.172389 -0.289032
v 0.624936 -0.376050 -0.258857
v 0.409550 -0.633739 -0.169642
v 0.443295 0.633738 0.000001
v 0.676426 0.376050 -0.000000
v 0.755280 0.172390 -0.000000
v 0.774980 -0.000000 0.000000
v 0.755280 -0.172390 0.000000
v 0.676426 -0.376050 0.000000
v 0.443295 -0.633738 0.000001
v 0.409549 0.633740 0.169641
v 0.624936 0.376050 0.258857
v 0.697788 0.172390 0.289033
v 0.715988 -0.000000 0.296572
v 0.697788 -0.172390 0.289033
v 0.624937 -0.376049 0.258856
v 0.409551 -0.633738 0.169641
v 0.313457 0.633738 0.313457
v 0.478305 0.376050 0.478306
v 0.534063 0.172389 0.534065
v 0.547993 -0.000000 0.547994
v 0.534063 -0.172389 0.534064
v 0.478306 -0.376049 0.478305
v 0.313457 -0.633738 0.313456
v 0.169641 0.633738 0.409551
v 0.258857 0.376050 0.624936
v 0.289033 0.172389 0.697788
v 0.296572 -0.000000 0.715988
v 0.289034 -0.172388 0.697788
v 0.258858 -0.376049 0.624936
v 0.169643 -0.633738 0.409551
v 0.000001 0.633738 0.443296
v 0.000002 0.376050 0.676426
v 0.000001 0.172388 0.755281
v 0.000000 -0.000000 0.774980
v -0.000000 -0.172387 0.755281
v 0.000000 -0.376049 0.676426
v 0.000001 -0.633738 0.443295
v -0.169640 0.633739 0.409550
v -0.258856 0.376049 0.624937
v -0.289033 0.172386 0.697789
v -0.296572 -0.000001 0.715988
v -0.289034 -0.172388 0.697788
v -0.258859 -0.376048 0.624936
v -0.169641 -0.633739 0.409551
v -0.313457 0.633739 0.313455
v -0.478307 0.376049 0.478304
v -0.534065 0.172387 0.534063
v -0.547994 -0.000001 0.547994
v -0.534064 -0.172389 0.534063
v -0.478306 -0.376049 0.478305
v -0.313457 -0.633738 0.313456
v -0.409551 0.633739 0.169641
v -0.624937 0.376048 0.258857
v -0.697789 0.172388 0.289033
v -0.715988 -0.000000 0.296571
v -0.697788 -0.172389 0.289034
v -0.624936 -0.376049 0.258858
v -0.409551 -0.633738 0.169641
v -0.443294 0.633739 0.000000
v -0.676426 0.376049 0.000001
v -0.755281 0.172387 -0.000000
v -0.774980 0.000000 -0.000001
v -0.755281 -0.172387 0.000000
v -0.676426 -0.376050 0.000000
v -0.443293 -0.633739 -0.000000
v -0.409549 0.633739 -0.169642
v -0.624936 0.376049 -0.258858
v -0.697788 0.172387 -0.289034
v -0.715988 0.000001 -0.296572
v -0.697788 -0.172387 -0.289034
v -0.624935 -0.376050 -0.258857
v -0.409550 -0.633739 -0.169641
v -0.313457 0.633738 -0.313457
v -0.478305 0.376050 -0.478306
v -0.534063 0.172388 -0.534065
v -0.547993 0.000000 -0.547994
v -0.534064 -0.172388 -0.534064
v -0.478305 -0.376049 -0.478306
v -0.313457 -0.633739 -0.313455
v -0.169642 0.633739 -0.409549
v -0.258858 0.376050 -0.624936
v -0.289033 0.172388 -0.697788
v -0.296572 -0.000000 -0.715988
v -0.289033 -0.172387 -0.697789
v -0.258858 -0.376049 -0.624936
v -0.169641 -0.633739 -0.409550
v -0.000000 0.633739 -0.443294
v -0.000001 0.376050 -0.676426
v -0.000000 -0.376049 -0.676426
vn -0.0000 1.0000 -0.0000
vn -0.0000 0.3744 -0.9273
vn -0.0000 -0.0000 -1.0000
vn -0.0000 -0.3744 -0.9273
vn -0.0000 -0.9152 -0.4031
vn -0.0000 -1.0000 -0.0000
vn 0.1543 0.9152 -0.3724
vn 0.2751 0.6952 -0.6641
vn 0.3549 0.3744 -0.8567
vn 0.3827 -0.0000 -0.9239
vn 0.3549 -0.3744 -0.8567
vn 0.2751 -0.6952 -0.6641
vn 0.1543 -0.9152 -0.3724
vn 0.2850 0.9152 -0.2850
vn 0.5083 0.6952 -0.5083
vn 0.6557 0.3744 -0.6557
vn 0.7071 -0.0000 -0.7071
vn 0.6557 -0.3744 -0.6557
vn 0.5083 -0.6952 -0.5083
vn 0.2850 -0.9152 -0.2850
vn 0.3724 0.9152 -0.1543
vn 0.6641 0.6952 -0.2751
vn 0.8567 0.3744 -0.3549
vn 0.9239 -0.0000 -0.3827
vn 0.8567 -0.3744 -0.3549
vn 0.6641 -0.6952 -0.2751
vn 0.3724 -0.9152 -0.1543
vn 0.4031 0.9152 -0.0000
vn 0.7189 0.6952 -0.0000
vn 0.9273 0.3744 -0.0000
vn 1.0000 -0.0000 -0.0000
vn 0.9273 -0.3744 -0.0000
vn 0.7189 -0.6952 -0.0000
vn 0.4031 -0.9152 -0.0000
vn 0.3724 0.9152 0.1543
vn 0.6641 0.6952 0.2751
vn 0.8567 0.3744 0.3549
vn 0.9239 -0.0000 0.3827
vn 0.8567 -0.3744 0.3549
vn 0.6641 -0.6952 0.2751
vn 0.3724 -0.9152 0.1543
vn 0.2850 0.9152 0.2850
vn 0.5083 0.6952 0.5083
vn 0.6557 0.3744 0.6557
vn 0.7071 -0.0000 0.7071
vn 0.6557 -0.3744 0.6557
vn 0.5083 -0.6952 0.5083
vn 0.2850 -0.9152 0.2850
vn 0.1543 0.9152 0.3724
vn 0.2751 0.6952 0.6641
vn 0.3549 0.3744 0.8567
vn 0.3827 -0.0000 0.9239
vn 0.3549 -0.3744 0.8567
vn 0.2751 -0.6952 0.6641
vn 0.1543 -0.9152 0.3724
vn -0.0000 0.9152 0.4031
vn -0.0000 0.6952 0.7189
vn -0.0000 0.3744 0.9273
vn -0.0000 -0.0000 1.0000
vn -0.0000 -0.3744 0.9273
vn -0.0000 -0.6952 0.7189
vn -0.0000 -0.9152 0.4031
vn -0.1543 0.9152 0.3724
vn -0.2751 0.6952 0.6641
vn -0.3549 0.3744 0.8567
vn -0.3827 -0.0000 0.9239
vn -0.3549 -0.3744 0.8567
vn -0.2751 -0.6952 0.6641
vn -0.1543 -0.9152 0.3724
vn -0.2850 0.9152 0.2850
vn -0.5083 0.6952 0.5083
vn -0.6557 0.3744 0.6557
vn -0.7071 -0.0000 0.7071
vn -0.6557 -0.3744 0.6557
vn -0.5083 -0.6952 0.5083
vn -0.2850 -0.9152 0.2850
vn -0.3724 0.9152 0.1543
vn -0.6641 0.6952 0.2751
vn -0.8567 0.3744 0.3549
vn -0.9239 -0.0000 0.3827
vn -0.8567 -0.3744 0.3549
vn -0.6641 -0.6952 0.2751
vn -0.3724 -0.9152 0.1543
vn -0.4031 0.9152 -0.0000
vn -0.7189 0.6952 -0.0000
vn -0.9273 0.3744 -0.0000
vn -1.0000 -0.0000 -0.0000
vn -0.9273 -0.3744 -0.0000
vn -0.7189 -0.6952 -0.0000
vn -0.4031 -0.9152 -0.0000
vn -0.3724 0.9152 -0.1543
vn -0.6641 0.6952 -0.2751
vn -0.8567 0.3744 -0.3549
vn -0.9239 -0.0000 -0.3827
vn -0.8567 -0.3744 -0.3549
vn -0.6641 -0.6952 -0.2751
vn -0.3724 -0.9152 -0.1543
vn -0.2850 0.9152 -0.2850
vn -0.5083 0.6952 -0.5083
vn -0.6557 0.3744 -0.6557
vn -0.7071 -0.0000 -0.7071
vn -0.6557 -0.3744 -0.6557
vn -0.5083 -0.6952 -0.5083
vn -0.2850 -0.9152 -0.2850
vn -0.1543 0.9152 -0.3724
vn -0.2751 0.6952 -0.6641
vn -0.3549 0.3744 -0.8567
vn -0.3827 -0.0000 -0.9239
vn -0.3549 -0.3744 -0.8567
vn -0.2751 -0.6952 -0.6641
vn -0.1543 -0.9152 -0.3724
vn -0.0000 0.9152 -0.4031
vn -0.0000 0.6952 -0.7189
vn -0.0000 -0.6952 -0.7189
vn -0.0000 -0.3722 0.9282
vn -0.0000 0.3722 0.9282
vn -0.0000 0.9133 0.4073
vn -0.1559 -0.9133 0.3763
vn -0.2763 -0.6919 0.6670
vn -0.3552 -0.3722 0.8575
vn -0.3552 0.3722 0.8575
vn -0.2763 0.6919 0.6670
vn -0.1559 0.9133 0.3763
vn -0.2880 -0.9133 0.2880
vn -0.5105 -0.6919 0.5105
vn -0.6563 -0.3722 0.6563
vn -0.6563 0.3722 0.6563
vn -0.5105 0.6919 0.5105
vn -0.2880 0.9133 0.2880
vn -0.3763 -0.9133 0.1559
vn -0.6670 -0.6919 0.2763
vn -0.8575 -0.3722 0.3552
vn -0.8575 0.3722 0.3552
vn -0.6670 0.6919 0.2763
vn -0.3763 0.9133 0.1559
vn -0.4073 -0.9133 -0.0000
vn -0.7220 -0.6919 -0.0000
vn -0.9282 -0.3722 -0.0000
vn -0.9282 0.3722 -0.0000
vn -0.7220 0.6919 -0.0000
vn -0.4073 0.9133 -0.0000
vn -0.3763 -0.9133 -0.1559
vn -0.6670 -0.6919 -0.2763
vn -0.8575 -0.3722 -0.3552
vn -0.8575 0.3722 -0.3552
vn -0.6670 0.6919 -0.2763
vn -0.3763 0.9133 -0.1559
vn -0.2880 -0.9133 -0.2880
vn -0.5105 -0.6919 -0.5105
vn -0.6563 -0.3722 -0.6563
vn -0.6563 0.3722 -0.6563
vn -0.5105 0.6919 -0.5105
vn -0.2880 0.9133 -0.2880
vn -0.1559 -0.9133 -0.3763
vn -0.2763 -0.6919 -0.6670
vn -0.3552 -0.3722 -0.8575
vn -0.3552 0.3722 -0.8575
vn -0.2763 0.6919 -0.6670
vn -0.1559 0.9133 -0.3763
vn -0.0000 -0.9133 -0.4073
vn -0.0000 -0.6919 -0.7220
vn -0.0000 -0.3722 -0.9282
vn -0.0000 0.3722 -0.9282
vn -0.0000 0.6919 -0.7220
vn -0.0000 0.9133 -0.4073
vn 0.1559 -0.9133 -0.3763
vn 0.2763 -0.6919 -0.6670
vn 0.3552 -0.3722 -0.8575
vn 0.3552 0.3722 -0.8575
vn 0.2763 0.6919 -0.6670
vn 0.1559 0.9133 -0.3763
vn 0.2880 -0.9133 -0.2880
vn 0.5105 -0.6919 -0.5105
vn 0.6563 -0.3722 -0.6563
vn 0.6563 0.3722 -0.6563
vn 0.5105 0.6919 -0.5105
vn 0.2880 0.9133 -0.2880
vn 0.3763 -0.9133 -0.1558
vn 0.6670 -0.6919 -0.2763
vn 0.8575 -0.3722 -0.3552
vn 0.8575 0.3722 -0.3552
vn 0.6670 0.6919 -0.2763
vn 0.3763 0.9133 -0.1558
vn 0.4073 -0.9133 -0.0000
vn 0.7220 -0.6919 -0.0000
vn 0.9282 -0.3722 -0.0000
vn 0.9282 0.3722 -0.0000
vn 0.7220 0.6919 -0.0000
vn 0.4073 0.9133 -0.0000
vn 0.3763 -0.9133 0.1559
vn 0.6670 -0.6919 0.2763
vn 0.8575 -0.3722 0.3552
vn 0.8575 0.3722 0.3552
vn 0.6670 0.6919 0.2763
vn 0.3763 0.9133 0.1559
vn 0.2880 -0.9133 0.2880
vn 0.5105 -0.6919 0.5105
vn 0.6563 -0.3722 0.6563
vn 0.6563 0.3722 0.6563
vn 0.5105 0.6919 0.5105
vn 0.2880 0.9133 0.2880
vn 0.1558 -0.9133 0.3763
vn 0.2763 -0.6919 0.6670
vn 0.3552 -0.3722 0.8575
vn 0.3552 0.3722 0.8575
vn 0.2763 0.6919 0.6670
vn 0.1559 0.9133 0.3763
vn -0.0000 -0.9133 0.4073
vn -0.0000 -0.6919 0.7220
vn -0.0000 0.6919 0.7220
vn -0.0000 -0.3698 0.9291
vn -0.0000 0.3698 0.9291
vn -0.0000 0.9113 0.4117
vn -0.1576 -0.9113 0.3804
vn -0.2776 -0.6884 0.6701
vn -0.3556 -0.3698 0.8584
vn -0.3556 0.3698 0.8584
vn -0.2776 0.6884 0.6701
vn -0.1576 0.9113 0.3804
vn -0.2911 -0.9113 0.2911
vn -0.5129 -0.6884 0.5129
vn -0.6570 -0.3698 0.6570
vn -0.6570 0.3698 0.6570
vn -0.5129 0.6884 0.5129
vn -0.2911 0.9113 0.2911
vn -0.3804 -0.9113 0.1576
vn -0.6701 -0.6884 0.2776
vn -0.8584 -0.3698 0.3556
vn -0.8584 0.3698 0.3556
vn -0.6701 0.6884 0.2776
vn -0.3804 0.9113 0.1576
vn -0.4117 -0.9113 -0.0000
vn -0.7253 -0.6884 -0.0000
vn -0.9291 -0.3698 -0.0000
vn -0.9291 0.3698 -0.0000
vn -0.7253 0.6884 -0.0000
vn -0.4117 0.9113 -0.0000
vn -0.3804 -0.9113 -0.1576
vn -0.6701 -0.6884 -0.2776
vn -0.8584 -0.3698 -0.3556
vn -0.8584 0.3698 -0.3556
vn -0.6701 0.6884 -0.2776
vn -0.3804 0.9113 -0.1576
vn -0.2911 -0.9113 -0.2911
vn -0.5129 -0.6884 -0.5129
vn -0.6570 -0.3698 -0.6570
vn -0.6570 0.3698 -0.6570
vn -0.5129 0.6884 -0.5129
vn -0.2911 0.9113 -0.2911
vn -0.1576 -0.9113 -0.3804
vn -0.2776 -0.6884 -0.6701
vn -0.3556 -0.3698 -0.8584
vn -0.3556 0.3698 -0.8584
vn -0.2776 0.6884 -0.6701
vn -0.1576 0.9113 -0.3804
vn -0.0000 -0.9113 -0.4117
vn -0.0000 -0.6884 -0.7253
vn -0.0000 -0.3698 -0.9291
vn -0.0000 0.3698 -0.9291
vn -0.0000 0.6884 -0.7253
vn -0.0000 0.9113 -0.4117
vn 0.1576 -0.9113 -0.3804
vn 0.2776 -0.6884 -0.6701
vn 0.3556 -0.3698 -0.8584
vn 0.3556 0.3698 -0.8584
vn 0.2776 0.6884 -0.6701
vn 0.1576 0.9113 -0.3804
vn 0.2911 -0.9113 -0.2911
vn 0.5129 -0.6884 -0.5129
vn 0.6570 -0.3698 -0.6570
vn 0.6570 0.3698 -0.6570
vn 0.5129 0.6884 -0.5129
vn 0.2911 0.9113 -0.2911
vn 0.3804 -0.9113 -0.1576
vn 0.6701 -0.6884 -0.2776
vn 0.8584 -0.3698 -0.3556
vn 0.8584 0.3698 -0.3556
vn 0.6701 0.6884 -0.2776
vn 0.3804 0.9113 -0.1576
vn 0.4117 -0.9113 -0.0000
vn 0.7253 -0.6884 -0.0000
vn 0.9291 -0.3698 -0.0000
vn 0.9291 0.3698 -0.0000
vn 0.7253 0.6884 -0.0000
vn 0.4117 0.9113 -0.0000
vn 0.3804 -0.9113 0.1576
vn 0.6701 -0.6884 0.2776
vn 0.8584 -0.3698 0.3556
vn 0.8584 0.3698 0.3556
vn 0.6701 0.6884 0.2776
vn 0.3804 0.9113 0.1576
vn 0.2911 -0.9113 0.2911
vn 0.5129 -0.6884 0.5129
vn 0.6570 -0.3698 0.6570
vn 0.6570 0.3698 0.6570
vn 0.5129 0.6884 0.5129
vn 0.2911 0.9113 0.2911
vn 0.1576 -0.9113 0.3804
vn 0.2776 -0.6884 0.6701
vn 0.3556 -0.3698 0.8584
vn 0.3556 0.3698 0.8584
vn 0.2776 0.6884 0.6701
vn 0.1576 0.9113 0.3804
vn -0.0000 -0.9113 0.4117
vn -0.0000 -0.6884 0.7253
vn -0.0000 0.6884 0.7253
vn -0.0000 -0.3693 0.9293
vn -0.0000 0.3693 0.9293
vn -0.0000 0.9109 0.4126
vn -0.1579 -0.9109 0.3812
vn -0.2778 -0.6877 0.6707
vn -0.3556 -0.3693 0.8586
vn -0.3556 0.3693 0.8586
vn -0.2778 0.6877 0.6707
vn -0.1579 0.9109 0.3812
vn -0.2917 -0.9109 0.2917
vn -0.5134 -0.6877 0.5134
vn -0.6571 -0.3693 0.6571
vn -0.6571 0.3693 0.6571
vn -0.5134 0.6877 0.5134
vn -0.2917 0.9109 0.2917
vn -0.3812 -0.9109 0.1579
vn -0.6707 -0.6877 0.2778
vn -0.8586 -0.3693 0.3556
vn -0.8586 0.3693 0.3556
vn -0.6707 0.6877 0.2778
vn -0.3812 0.9109 0.1579
vn -0.4126 -0.9109 -0.0000
vn -0.7260 -0.6877 -0.0000
vn -0.9293 -0.3693 -0.0000
vn -0.9293 0.3693 -0.0000
vn -0.7260 0.6877 -0.0000
vn -0.4126 0.9109 -0.0000
vn -0.3812 -0.9109 -0.1579
vn -0.6707 -0.6877 -0.2778
vn -0.8586 -0.3693 -0.3556
vn -0.8586 0.3693 -0.3556
vn -0.6707 0.6877 -0.2778
vn -0.3812 0.9109 -0.1579
vn -0.2917 -0.9109 -0.2917
vn -0.5134 -0.6877 -0.5134
vn -0.6571 -0.3693 -0.6571
vn -0.6571 0.3693 -0.6571
vn -0.5134 0.6877 -0.5134
vn -0.2917 0.9109 -0.2917
vn -0.1579 -0.9109 -0.3812
vn -0.2778 -0.6877 -0.6707
vn -0.3556 -0.3693 -0.8586
vn -0.3556 0.3693 -0.8586
vn -0.2778 0.6877 -0.6707
vn -0.1579 0.9109 -0.3812
vn -0.0000 -0.9109 -0.4126
vn -0.0000 -0.6877 -0.7260
vn -0.0000 -0.3693 -0.9293
vn -0.0000 0.3693 -0.9293
vn -0.0000 0.6877 -0.7260
vn -0.0000 0.9109 -0.4126
vn 0.1579 -0.9109 -0.3812
vn 0.2778 -0.6877 -0.6707
vn 0.3556 -0.3693 -0.8586
vn 0.3556 0.3693 -0.8586
vn 0.2778 0.6877 -0.6707
vn 0.1579 0.9109 -0.3812
vn 0.2917 -0.9109 -0.2917
vn 0.5134 -0.6877 -0.5134
vn 0.6571 -0.3693 -0.6571
vn 0.6571 0.3693 -0.6571
vn 0.5134 0.6877 -0.5134
vn 0.2917 0.9109 -0.2917
vn 0.3812 -0.9109 -0.1579
vn 0.6707 -0.6877 -0.2778
vn 0.8586 -0.3693 -0.3556
vn 0.8586 0.3693 -0.3556
vn 0.6707 0.6877 -0.2778
vn 0.3812 0.9109 -0.1579
vn 0.4126 -0.9109 -0.0000
vn 0.7260 -0.6877 -0.0000
vn 0.9293 -0.3693 -0.0000
vn 0.9293 0.3693 -0.0000
vn 0.7260 0.6877 -0.0000
vn 0.4126 0.9109 -0.0000
vn 0.3812 -0.9109 0.1579
vn 0.6707 -0.6877 0.2778
vn 0.8586 -0.3693 0.3556
vn 0.8586 0.3693 0.3556
vn 0.6707 0.6877 0.2778
vn 0.3812 0.9109 0.1579
vn 0.2917 -0.9109 0.2917
vn 0.5134 -0.6877 0.5134
vn 0.6571 -0.3693 0.6571
vn 0.6571 0.3693 0.6571
vn 0.5134 0.6877 0.5134
vn 0.2917 0.9109 0.2917
vn 0.1579 -0.9109 0.3812
vn 0.2778 -0.6877 0.6707
vn 0.3556 -0.3693 0.8586
vn 0.3556 0.3693 0.8586
vn 0.2778 0.6877 0.6707
vn 0.1579 0.9109 0.3812
vn -0.0000 -0.9109 0.4126
vn -0.0000 -0.6877 0.7260
vn -0.0000 0.6877 0.7260
vn -0.0000 -0.2357 0.9718
vn -0.0000 0.2357 0.9718
vn -0.0000 0.8262 0.5634
vn -0.2156 -0.8262 0.5205
vn -0.3281 -0.5149 0.7920
vn -0.3719 -0.2357 0.8979
vn -0.3719 0.2357 0.8979
vn -0.3281 0.5149 0.7920
vn -0.2156 0.8262 0.5205
vn -0.3984 -0.8262 0.3984
vn -0.6062 -0.5149 0.6062
vn -0.6872 -0.2357 0.6872
vn -0.6872 0.2357 0.6872
vn -0.6062 0.5149 0.6062
vn -0.3984 0.8262 0.3984
vn -0.5205 -0.8262 0.2156
vn -0.7920 -0.5149 0.3281
vn -0.8979 -0.2357 0.3719
vn -0.8979 0.2357 0.3719
vn -0.7920 0.5149 0.3281
vn -0.5205 0.8262 0.2156
vn -0.5634 -0.8262 -0.0000
vn -0.8573 -0.5149 -0.0000
vn -0.9718 -0.2357 -0.0000
vn -0.9718 0.2357 -0.0000
vn -0.8573 0.5149 -0.0000
vn -0.5634 0.8262 -0.0000
vn -0.5205 -0.8262 -0.2156
vn -0.7920 -0.5149 -0.3281
vn -0.8979 -0.2357 -0.3719
vn -0.8979 0.2357 -0.3719
vn -0.7920 0.5149 -0.3281
vn -0.5205 0.8262 -0.2156
vn -0.3984 -0.8262 -0.3984
vn -0.6062 -0.5149 -0.6062
vn -0.6872 -0.2357 -0.6872
vn -0.6872 0.2357 -0.6872
vn -0.6062 0.5149 -0.6062
vn -0.3984 0.8262 -0.3984
vn -0.2156 -0.8262 -0.5205
vn -0.3281 -0.5149 -0.7920
vn -0.3719 -0.2357 -0.8979
vn -0.3719 0.2357 -0.8979
vn -0.3281 0.5149 -0.7920
vn -0.2156 0.8262 -0.5205
vn -0.0000 -0.8262 -0.5634
vn -0.0000 -0.5149 -0.8573
vn -0.0000 -0.2357 -0.9718
vn -0.0000 0.2357 -0.9718
vn -0.0000 0.5149 -0.8573
vn -0.0000 0.8262 -0.5634
vn 0.2156 -0.8262 -0.5205
vn 0.3281 -0.5149 -0.7920
vn 0.3719 -0.2357 -0.8979
vn 0.3719 0.2357 -0.8979
vn 0.3281 0.5149 -0.7920
vn 0.2156 0.8262 -0.5205
vn 0.3984 -0.8262 -0.3984
vn 0.6062 -0.5149 -0.6062
vn 0.6872 -0.2357 -0.6872
vn 0.6872 0.2357 -0.6872
vn 0.6062 0.5149 -0.6062
vn 0.3984 0.8262 -0.3984
vn 0.5205 -0.8262 -0.2156
vn 0.7920 -0.5149 -0.3281
vn 0.8979 -0.2357 -0.3719
vn 0.8979 0.2357 -0.3719
vn 0.7920 0.5149 -0.3281
vn 0.5205 0.8262 -0.2156
vn 0.5634 -0.8262 -0.0000
vn 0.8573 -0.5149 -0.0000
vn 0.9718 -0.2357 -0.0000
vn 0.9718 0.2357 -0.0000
vn 0.8573 0.5149 -0.0000
vn 0.5634 0.8262 -0.0000
vn 0.5205 -0.8262 0.2156
vn 0.7920 -0.5149 0.3281
vn 0.8979 -0.2357 0.3719
vn 0.8979 0.2357 0.3719
vn 0.7920 0.5149 0.3281
vn 0.5205 0.8262 0.2156
vn 0.3984 -0.8262 0.3984
vn 0.6062 -0.5149 0.6062
vn 0.6872 -0.2357 0.6872
vn 0.6872 0.2357 0.6872
vn 0.6062 0.5149 0.6062
vn 0.3984 0.8262 0.3984
vn 0.2156 -0.8262 0.5205
vn 0.3281 -0.5149 0.7920
vn 0.3719 -0.2357 0.8979
vn 0.3719 0.2357 0.8979
vn 0.3281 0.5149 0.7920
vn 0.2156 0.8262 0.5205
vn -0.0000 -0.8262 0.5634
vn -0.0000 -0.5149 0.8573
vn -0.0000 0.5149 0.8573
vt 0.583250 0.416750
vt 0.562438 0.375125
vt 0.583250 0.375125
vt 0.583250 0.500000
vt 0.562438 0.458375
vt 0.583250 0.458375
vt 0.583250 0.583250
vt 0.562438 0.541625
vt 0.583250 0.541625
vt 0.583250 0.624875
vt 0.572844 0.666500
vt 0.562438 0.624875
vt 0.572844 0.333500
vt 0.562438 0.416750
vt 0.562437 0.500000
vt 0.562438 0.583250
vt 0.541625 0.583250
vt 0.541625 0.541625
vt 0.552031 0.666500
vt 0.541625 0.624875
vt 0.552031 0.333500
vt 0.541625 0.375125
vt 0.541625 0.416750
vt 0.541625 0.500000
vt 0.541625 0.458375
vt 0.531219 0.333500
vt 0.520812 0.375125
vt 0.520812 0.416750
vt 0.520812 0.541625
vt 0.520812 0.500000
vt 0.520812 0.583250
vt 0.520812 0.458375
vt 0.531219 0.666500
vt 0.520812 0.624875
vt 0.500000 0.624875
vt 0.500000 0.583250
vt 0.500000 0.375125
vt 0.500000 0.458375
vt 0.500000 0.541625
vt 0.510406 0.666500
vt 0.510406 0.333500
vt 0.500000 0.416750
vt 0.500000 0.500000
vt 0.479187 0.416750
vt 0.479187 0.375125
vt 0.479187 0.458375
vt 0.479187 0.541625
vt 0.489594 0.666500
vt 0.479187 0.624875
vt 0.489594 0.333500
vt 0.479187 0.500000
vt 0.479187 0.583250
vt 0.468781 0.666500
vt 0.458375 0.624875
vt 0.468781 0.333500
vt 0.458375 0.375125
vt 0.458375 0.458375
vt 0.458375 0.416750
vt 0.458375 0.541625
vt 0.458375 0.500000
vt 0.458375 0.583250
vt 0.437562 0.458375
vt 0.437562 0.416750
vt 0.437562 0.541625
vt 0.437562 0.500000
vt 0.437562 0.624875
vt 0.437562 0.583250
vt 0.437562 0.375125
vt 0.447969 0.666500
vt 0.447969 0.333500
vt 0.416750 0.375125
vt 0.416750 0.458375
vt 0.416750 0.541625
vt 0.427156 0.666500
vt 0.416750 0.624875
vt 0.427156 0.333500
vt 0.416750 0.416750
vt 0.416750 0.500000
vt 0.416750 0.583250
vt 0.395937 0.458375
vt 0.395937 0.541625
vt 0.406344 0.666500
vt 0.395937 0.624875
vt 0.406344 0.333500
vt 0.395937 0.375125
vt 0.395937 0.416750
vt 0.395937 0.500000
vt 0.395937 0.583250
vt 0.385531 0.333500
vt 0.375125 0.375125
vt 0.375125 0.458375
vt 0.375125 0.416750
vt 0.375125 0.541625
vt 0.375125 0.500000
vt 0.375125 0.624875
vt 0.375125 0.583250
vt 0.385531 0.666500
vt 0.354312 0.541625
vt 0.354312 0.500000
vt 0.354312 0.583250
vt 0.354312 0.416750
vt 0.354312 0.375125
vt 0.354312 0.458375
vt 0.364719 0.666500
vt 0.354312 0.624875
vt 0.364719 0.333500
vt 0.333500 0.375125
vt 0.333500 0.458375
vt 0.333500 0.541625
vt 0.343906 0.666500
vt 0.333500 0.624875
vt 0.343906 0.333500
vt 0.333500 0.416750
vt 0.333500 0.500000
vt 0.333500 0.583250
vt 0.666500 0.583250
vt 0.645688 0.541625
vt 0.666500 0.541625
vt 0.666500 0.624875
vt 0.656094 0.666500
vt 0.645688 0.624875
vt 0.656094 0.333500
vt 0.666500 0.375125
vt 0.645688 0.375125
vt 0.666500 0.416750
vt 0.645688 0.458375
vt 0.645688 0.416750
vt 0.666500 0.500000
vt 0.645688 0.500000
vt 0.645688 0.583250
vt 0.666500 0.458375
vt 0.635281 0.333500
vt 0.624875 0.375125
vt 0.624875 0.458375
vt 0.624875 0.416750
vt 0.624875 0.541625
vt 0.624875 0.500000
vt 0.624875 0.624875
vt 0.624875 0.583250
vt 0.635281 0.666500
vt 0.604062 0.583250
vt 0.604062 0.416750
vt 0.604062 0.375125
vt 0.604062 0.458375
vt 0.604062 0.541625
vt 0.614469 0.666500
vt 0.604062 0.624875
vt 0.614469 0.333500
vt 0.604062 0.500000
vt 0.593656 0.666500
vt 0.593656 0.333500
vt 0.437562 0.291542
vt 0.416750 0.249917
vt 0.416750 0.291542
vt 0.437562 0.208292
vt 0.416750 0.166667
vt 0.416750 0.208292
vt 0.437562 0.125042
vt 0.416750 0.083417
vt 0.416750 0.125042
vt 0.416750 0.041792
vt 0.437562 0.041792
vt 0.427156 0.000166
vt 0.427156 0.333167
vt 0.458375 0.083417
vt 0.437562 0.083417
vt 0.458375 0.041792
vt 0.447969 0.000166
vt 0.447969 0.333167
vt 0.458375 0.291542
vt 0.458375 0.249917
vt 0.437562 0.249917
vt 0.437562 0.166667
vt 0.458375 0.125042
vt 0.458375 0.208292
vt 0.468781 0.333167
vt 0.479187 0.291542
vt 0.479187 0.249917
vt 0.458375 0.166667
vt 0.479187 0.125042
vt 0.479187 0.083417
vt 0.479187 0.208292
vt 0.479187 0.041792
vt 0.468781 0.000166
vt 0.500000 0.041792
vt 0.500000 0.291542
vt 0.500000 0.166667
vt 0.479187 0.166667
vt 0.500000 0.083417
vt 0.489594 0.000166
vt 0.489594 0.333167
vt 0.500000 0.249917
vt 0.520813 0.249917
vt 0.500000 0.208292
vt 0.520813 0.166667
vt 0.520813 0.125042
vt 0.500000 0.125042
vt 0.520813 0.041792
vt 0.510406 0.000166
vt 0.510406 0.333167
vt 0.520813 0.291542
vt 0.520813 0.208292
vt 0.520813 0.083417
vt 0.541625 0.041792
vt 0.531219 0.000166
vt 0.531219 0.333167
vt 0.541625 0.291542
vt 0.541625 0.249917
vt 0.541625 0.125042
vt 0.541625 0.083417
vt 0.541625 0.208292
vt 0.562438 0.208292
vt 0.541625 0.166667
vt 0.562438 0.125042
vt 0.562438 0.041792
vt 0.562438 0.291542
vt 0.552031 0.000166
vt 0.552031 0.333167
vt 0.583250 0.291542
vt 0.562438 0.249917
vt 0.583250 0.208292
vt 0.562438 0.166667
vt 0.583250 0.125042
vt 0.562438 0.083417
vt 0.583250 0.041792
vt 0.572844 0.000166
vt 0.572844 0.333167
vt 0.604063 0.208292
vt 0.583250 0.166667
vt 0.604063 0.125042
vt 0.583250 0.083417
vt 0.604063 0.041792
vt 0.593656 0.000166
vt 0.593656 0.333167
vt 0.604063 0.291542
vt 0.604063 0.249917
vt 0.583250 0.249917
vt 0.604063 0.083417
vt 0.614469 0.333167
vt 0.624875 0.291542
vt 0.624875 0.208292
vt 0.604063 0.166667
vt 0.624875 0.125042
vt 0.624875 0.041792
vt 0.624875 0.249917
vt 0.614469 0.000166
vt 0.624875 0.166667
vt 0.645688 0.125042
vt 0.645688 0.083417
vt 0.624875 0.083417
vt 0.645688 0.249917
vt 0.645688 0.208292
vt 0.645688 0.041792
vt 0.635281 0.000166
vt 0.635281 0.333167
vt 0.645688 0.291542
vt 0.666500 0.249917
vt 0.666500 0.208292
vt 0.645688 0.166667
vt 0.666500 0.125042
vt 0.666500 0.041792
vt 0.656094 0.000166
vt 0.656094 0.333167
vt 0.666500 0.291542
vt 0.666500 0.083417
vt 0.354312 0.125042
vt 0.333500 0.083417
vt 0.333500 0.125042
vt 0.333500 0.041792
vt 0.354312 0.041792
vt 0.343906 0.000167
vt 0.343906 0.333167
vt 0.354312 0.291542
vt 0.333500 0.291542
vt 0.333500 0.249917
vt 0.354312 0.208292
vt 0.333500 0.208292
vt 0.333500 0.166667
vt 0.364719 0.333167
vt 0.375125 0.291542
vt 0.354312 0.249917
vt 0.375125 0.208292
vt 0.354312 0.166667
vt 0.375125 0.125042
vt 0.354312 0.083417
vt 0.375125 0.041792
vt 0.364719 0.000166
vt 0.395937 0.083417
vt 0.375125 0.083417
vt 0.395937 0.291542
vt 0.375125 0.249917
vt 0.395937 0.208292
vt 0.375125 0.166667
vt 0.395937 0.125042
vt 0.395937 0.041792
vt 0.385531 0.000166
vt 0.385531 0.333167
vt 0.395937 0.249917
vt 0.395937 0.166667
vt 0.406344 0.000166
vt 0.406344 0.333167
vt 0.104229 0.624875
vt 0.083417 0.583250
vt 0.083417 0.624875
vt 0.104229 0.541625
vt 0.083417 0.500000
vt 0.083417 0.541625
vt 0.104229 0.458375
vt 0.083417 0.416750
vt 0.083417 0.458375
vt 0.083417 0.375125
vt 0.104229 0.375125
vt 0.093823 0.333500
vt 0.093823 0.666500
vt 0.104229 0.583250
vt 0.125042 0.416750
vt 0.104229 0.416750
vt 0.125042 0.375125
vt 0.114635 0.333500
vt 0.114635 0.666500
vt 0.125042 0.624875
vt 0.125042 0.583250
vt 0.125042 0.500000
vt 0.104229 0.500000
vt 0.135448 0.666500
vt 0.145854 0.624875
vt 0.145854 0.583250
vt 0.125042 0.541625
vt 0.145854 0.458375
vt 0.125042 0.458375
vt 0.145854 0.375125
vt 0.145854 0.541625
vt 0.145854 0.416750
vt 0.135448 0.333500
vt 0.166667 0.375125
vt 0.166667 0.624875
vt 0.166667 0.541625
vt 0.145854 0.500000
vt 0.166667 0.416750
vt 0.156260 0.333500
vt 0.156260 0.666500
vt 0.166667 0.583250
vt 0.166667 0.458375
vt 0.187479 0.624875
vt 0.187479 0.500000
vt 0.166667 0.500000
vt 0.187479 0.458375
vt 0.187479 0.375125
vt 0.177073 0.333500
vt 0.177073 0.666500
vt 0.187479 0.541625
vt 0.208292 0.375125
vt 0.197885 0.333500
vt 0.197885 0.666500
vt 0.208292 0.624875
vt 0.187479 0.583250
vt 0.208292 0.541625
vt 0.208292 0.500000
vt 0.187479 0.416750
vt 0.208292 0.583250
vt 0.208292 0.458375
vt 0.229104 0.541625
vt 0.229104 0.458375
vt 0.208292 0.416750
vt 0.229104 0.375125
vt 0.229104 0.624875
vt 0.218698 0.333500
vt 0.218698 0.666500
vt 0.249917 0.624875
vt 0.229104 0.583250
vt 0.249917 0.541625
vt 0.229104 0.500000
vt 0.249917 0.458375
vt 0.229104 0.416750
vt 0.249917 0.375125
vt 0.239511 0.333500
vt 0.239511 0.666500
vt 0.270729 0.541625
vt 0.249917 0.500000
vt 0.270729 0.458375
vt 0.249917 0.416750
vt 0.270729 0.375125
vt 0.260323 0.333500
vt 0.260323 0.666500
vt 0.270729 0.624875
vt 0.249917 0.583250
vt 0.270729 0.416750
vt 0.281136 0.666500
vt 0.291542 0.624875
vt 0.270729 0.583250
vt 0.291542 0.541625
vt 0.270729 0.500000
vt 0.291542 0.458375
vt 0.291542 0.416750
vt 0.291542 0.583250
vt 0.291542 0.375125
vt 0.281136 0.333500
vt 0.291542 0.500000
vt 0.312354 0.458375
vt 0.312354 0.416750
vt 0.312354 0.583250
vt 0.312354 0.541625
vt 0.312354 0.375125
vt 0.301948 0.333500
vt 0.301948 0.666500
vt 0.312354 0.624875
vt 0.333167 0.624875
vt 0.333167 0.541625
vt 0.312354 0.500000
vt 0.333167 0.458375
vt 0.333167 0.375125
vt 0.322761 0.333500
vt 0.322761 0.666500
vt 0.333167 0.583250
vt 0.020979 0.458375
vt 0.000167 0.416750
vt 0.000167 0.458375
vt 0.000167 0.375125
vt 0.020979 0.375125
vt 0.010573 0.333500
vt 0.010573 0.666500
vt 0.020979 0.624875
vt 0.000167 0.624875
vt 0.020979 0.583250
vt 0.000167 0.541625
vt 0.000167 0.583250
vt 0.000167 0.500000
vt 0.020979 0.541625
vt 0.031385 0.666500
vt 0.041792 0.624875
vt 0.041792 0.541625
vt 0.020979 0.500000
vt 0.041792 0.458375
vt 0.020979 0.416750
vt 0.041792 0.375125
vt 0.031385 0.333500
vt 0.062604 0.416750
vt 0.041792 0.416750
vt 0.062604 0.583250
vt 0.041792 0.583250
vt 0.062604 0.541625
vt 0.041792 0.500000
vt 0.062604 0.458375
vt 0.062604 0.375125
vt 0.052198 0.333500
vt 0.052198 0.666500
vt 0.062604 0.624875
vt 0.062604 0.500000
vt 0.073010 0.333500
vt 0.073010 0.666500
vt 0.958208 0.229104
vt 0.916583 0.249917
vt 0.958208 0.249917
vt 0.874958 0.229104
vt 0.833333 0.249917
vt 0.874958 0.249917
vt 0.791708 0.229104
vt 0.750083 0.249917
vt 0.791708 0.249917
vt 0.708458 0.249917
vt 0.708458 0.229104
vt 0.666833 0.239511
vt 0.999833 0.239511
vt 0.750083 0.229104
vt 0.750083 0.208292
vt 0.708458 0.208292
vt 0.666833 0.218698
vt 0.999833 0.218698
vt 0.958208 0.208292
vt 0.916583 0.208292
vt 0.916583 0.229104
vt 0.833333 0.229104
vt 0.791708 0.208292
vt 0.874958 0.208292
vt 0.999833 0.197885
vt 0.958208 0.187479
vt 0.916583 0.187479
vt 0.833333 0.208292
vt 0.791708 0.187479
vt 0.708458 0.187479
vt 0.874958 0.187479
vt 0.750083 0.187479
vt 0.666833 0.197885
vt 0.708458 0.166667
vt 0.958208 0.166667
vt 0.874958 0.166667
vt 0.833333 0.187479
vt 0.750083 0.166667
vt 0.666833 0.177073
vt 0.999833 0.177073
vt 0.916583 0.166667
vt 0.791708 0.166667
vt 0.958208 0.145854
vt 0.833333 0.145854
vt 0.833333 0.166667
vt 0.791708 0.145854
vt 0.708458 0.145854
vt 0.666833 0.156260
vt 0.999833 0.156260
vt 0.874958 0.145854
vt 0.708458 0.125042
vt 0.666833 0.135448
vt 0.999833 0.135448
vt 0.958208 0.125042
vt 0.916583 0.145854
vt 0.874958 0.125042
vt 0.833333 0.125042
vt 0.750083 0.125042
vt 0.750083 0.145854
vt 0.916583 0.125042
vt 0.791708 0.125042
vt 0.874958 0.104229
vt 0.791708 0.104229
vt 0.708458 0.104229
vt 0.958208 0.104229
vt 0.666833 0.114635
vt 0.999833 0.114635
vt 0.958208 0.083417
vt 0.916583 0.104229
vt 0.874958 0.083417
vt 0.833333 0.104229
vt 0.791708 0.083417
vt 0.750083 0.104229
vt 0.708458 0.083417
vt 0.666833 0.093823
vt 0.999833 0.093823
vt 0.750083 0.083417
vt 0.874958 0.062604
vt 0.833333 0.083417
vt 0.750083 0.062604
vt 0.708458 0.062604
vt 0.666833 0.073010
vt 0.999833 0.073010
vt 0.958208 0.062604
vt 0.916583 0.083417
vt 0.791708 0.062604
vt 0.916583 0.062604
vt 0.999833 0.052198
vt 0.958208 0.041792
vt 0.874958 0.041792
vt 0.833333 0.062604
vt 0.791708 0.041792
vt 0.750083 0.041792
vt 0.916583 0.041792
vt 0.708458 0.041792
vt 0.666833 0.052198
vt 0.833333 0.041792
vt 0.791708 0.020979
vt 0.750083 0.020979
vt 0.916583 0.020979
vt 0.874958 0.020979
vt 0.708458 0.020979
vt 0.666833 0.031385
vt 0.999833 0.031385
vt 0.958208 0.020979
vt 0.958208 0.000167
vt 0.874958 0.000167
vt 0.833333 0.020979
vt 0.791708 0.000167
vt 0.708458 0.000167
vt 0.666833 0.010573
vt 0.999833 0.010573
vt 0.791708 0.333167
vt 0.750083 0.312354
vt 0.750083 0.333167
vt 0.708458 0.333167
vt 0.708458 0.312354
vt 0.666833 0.322761
vt 0.999833 0.322761
vt 0.958208 0.312354
vt 0.958208 0.333167
vt 0.916583 0.312354
vt 0.874958 0.333167
vt 0.916583 0.333167
vt 0.833333 0.333167
vt 0.791708 0.312354
vt 0.874958 0.312354
vt 0.999833 0.301948
vt 0.958208 0.291542
vt 0.874958 0.291542
vt 0.833333 0.312354
vt 0.791708 0.291542
vt 0.708458 0.291542
vt 0.916583 0.291542
vt 0.666833 0.301948
vt 0.750083 0.270729
vt 0.750083 0.291542
vt 0.958208 0.270729
vt 0.874958 0.270729
vt 0.833333 0.291542
vt 0.791708 0.270729
vt 0.708458 0.270729
vt 0.666833 0.281136
vt 0.999833 0.281135
vt 0.916583 0.270729
vt 0.833333 0.270729
vt 0.666833 0.260323
vt 0.999833 0.260323
vt 0.249917 0.041792
vt 0.229104 0.083417
vt 0.249917 0.083417
vt 0.249917 0.125042
vt 0.229104 0.166667
vt 0.249917 0.166667
vt 0.229104 0.208292
vt 0.249917 0.249917
vt 0.249917 0.208292
vt 0.249917 0.291542
vt 0.229104 0.291542
vt 0.239511 0.333167
vt 0.239510 0.000167
vt 0.229104 0.041792
vt 0.229104 0.125042
vt 0.208292 0.208292
vt 0.229104 0.249917
vt 0.208292 0.291542
vt 0.218698 0.333167
vt 0.218698 0.000167
vt 0.208292 0.041792
vt 0.208292 0.125042
vt 0.208292 0.166667
vt 0.197885 0.000167
vt 0.187479 0.041792
vt 0.187479 0.083417
vt 0.208292 0.083417
vt 0.187479 0.166667
vt 0.187479 0.249917
vt 0.208292 0.249917
vt 0.187479 0.291542
vt 0.197885 0.333167
vt 0.166667 0.249917
vt 0.166667 0.041792
vt 0.187479 0.125042
vt 0.166667 0.166667
vt 0.166667 0.208292
vt 0.187479 0.208292
vt 0.166667 0.291542
vt 0.177073 0.333167
vt 0.177073 0.000167
vt 0.166667 0.083417
vt 0.145854 0.083417
vt 0.145854 0.125042
vt 0.166667 0.125042
vt 0.145854 0.208292
vt 0.145854 0.291542
vt 0.156260 0.333167
vt 0.156260 0.000167
vt 0.145854 0.041792
vt 0.145854 0.249917
vt 0.125042 0.291542
vt 0.135448 0.333167
vt 0.135448 0.000167
vt 0.125042 0.041792
vt 0.125042 0.083417
vt 0.145854 0.166667
vt 0.125042 0.208292
vt 0.125042 0.125042
vt 0.125042 0.249917
vt 0.104229 0.083417
vt 0.104229 0.166667
vt 0.125042 0.166667
vt 0.104229 0.249917
vt 0.104229 0.041792
vt 0.104229 0.125042
vt 0.104229 0.291542
vt 0.114635 0.333167
vt 0.114635 0.000167
vt 0.083417 0.083417
vt 0.083417 0.125042
vt 0.104229 0.208292
vt 0.083417 0.249917
vt 0.083417 0.291542
vt 0.093823 0.333167
vt 0.093823 0.000167
vt 0.083417 0.041792
vt 0.083417 0.208292
vt 0.062604 0.166667
vt 0.083417 0.166667
vt 0.062604 0.249917
vt 0.062604 0.291542
vt 0.073010 0.333167
vt 0.073010 0.000167
vt 0.062604 0.041792
vt 0.062604 0.125042
vt 0.062604 0.208292
vt 0.052198 0.000167
vt 0.041792 0.041792
vt 0.062604 0.083417
vt 0.041792 0.125042
vt 0.041792 0.166667
vt 0.041792 0.249917
vt 0.041792 0.208292
vt 0.041792 0.291542
vt 0.052198 0.333167
vt 0.020979 0.166667
vt 0.020979 0.291542
vt 0.020979 0.083417
vt 0.041792 0.083417
vt 0.020979 0.125042
vt 0.020979 0.249917
vt 0.031385 0.333167
vt 0.031385 0.000167
vt 0.020979 0.041792
vt 0.000167 0.083417
vt 0.000167 0.125042
vt 0.020979 0.208292
vt 0.000167 0.249917
vt 0.000167 0.291542
vt 0.010573 0.333167
vt 0.010573 0.000167
vt 0.000167 0.041792
vt 0.000167 0.208292
vt 0.333167 0.208292
vt 0.312354 0.249917
vt 0.333167 0.249917
vt 0.333167 0.291542
vt 0.312354 0.291542
vt 0.322761 0.333167
vt 0.322760 0.000166
vt 0.312354 0.041792
vt 0.333167 0.041792
vt 0.333167 0.083417
vt 0.312354 0.125042
vt 0.333167 0.125042
vt 0.312354 0.166667
vt 0.333167 0.166667
vt 0.312354 0.083417
vt 0.301948 0.000166
vt 0.291542 0.041792
vt 0.291542 0.083417
vt 0.291542 0.166667
vt 0.312354 0.208292
vt 0.291542 0.291542
vt 0.291542 0.208292
vt 0.301948 0.333167
vt 0.270729 0.249917
vt 0.291542 0.249917
vt 0.270729 0.041792
vt 0.270729 0.125042
vt 0.291542 0.125042
vt 0.270729 0.291542
vt 0.281135 0.333167
vt 0.281135 0.000166
vt 0.270729 0.083417
vt 0.270729 0.208292
vt 0.270729 0.166667
vt 0.260323 0.333167
vt 0.260323 0.000167
vt 0.666500 0.166667
vt 0.333167 0.500000
vt 0.333167 0.416750
vt 0.916583 0.000167
vt 0.833333 0.000167
vt 0.750083 0.000167
vt 0.000167 0.166667
s 1
usemtl OH_Outline_Material
f 114/1/114 13/2/13 5/3/5
f 3/4/3 11/5/11 4/6/4
f 113/7/113 9/8/9 2/9/2
f 112/10/112 1/11/1 7/12/7
f 6/13/6 5/3/5 13/2/13
f 114/1/114 11/5/11 12/14/12
f 3/4/3 9/8/9 10/15/10
f 113/7/113 7/12/7 8/16/8
f 9/8/9 15/17/15 16/18/16
f 7/12/7 1/19/1 14/20/14
f 6/21/6 13/2/13 20/22/20
f 11/5/11 19/23/19 12/14/12
f 10/15/10 16/18/16 17/24/17
f 7/12/7 15/17/15 8/16/8
f 12/14/12 20/22/20 13/2/13
f 10/15/10 18/25/18 11/5/11
f 6/26/6 20/22/20 27/27/27
f 18/25/18 26/28/26 19/23/19
f 17/24/17 23/29/23 24/30/24
f 14/20/14 22/31/22 15/17/15
f 20/22/20 26/28/26 27/27/27
f 17/24/17 25/32/25 18/25/18
f 16/18/16 22/31/22 23/29/23
f 14/20/14 1/33/1 21/34/21
f 22/31/22 28/35/28 29/36/29
f 26/28/26 34/37/34 27/27/27
f 24/30/24 32/38/32 25/32/25
f 23/29/23 29/36/29 30/39/30
f 21/34/21 1/40/1 28/35/28
f 6/41/6 27/27/27 34/37/34
f 25/32/25 33/42/33 26/28/26
f 24/30/24 30/39/30 31/43/31
f 34/37/34 40/44/40 41/45/41
f 31/43/31 39/46/39 32/38/32
f 29/36/29 37/47/37 30/39/30
f 28/35/28 1/48/1 35/49/35
f 6/50/6 34/37/34 41/45/41
f 33/42/33 39/46/39 40/44/40
f 31/43/31 37/47/37 38/51/38
f 28/35/28 36/52/36 29/36/29
f 35/49/35 1/53/1 42/54/42
f 6/55/6 41/45/41 48/56/48
f 40/44/40 46/57/46 47/58/47
f 38/51/38 44/59/44 45/60/45
f 35/49/35 43/61/43 36/52/36
f 41/45/41 47/58/47 48/56/48
f 38/51/38 46/57/46 39/46/39
f 36/52/36 44/59/44 37/47/37
f 47/58/47 53/62/53 54/63/54
f 45/60/45 51/64/51 52/65/52
f 43/61/43 49/66/49 50/67/50
f 47/58/47 55/68/55 48/56/48
f 45/60/45 53/62/53 46/57/46
f 43/61/43 51/64/51 44/59/44
f 42/54/42 1/69/1 49/66/49
f 6/70/6 48/56/48 55/68/55
f 54/63/54 62/71/62 55/68/55
f 52/65/52 60/72/60 53/62/53
f 50/67/50 58/73/58 51/64/51
f 49/66/49 1/74/1 56/75/56
f 6/76/6 55/68/55 62/71/62
f 54/63/54 60/72/60 61/77/61
f 52/65/52 58/73/58 59/78/59
f 50/67/50 56/75/56 57/79/57
f 59/78/59 67/80/67 60/72/60
f 57/79/57 65/81/65 58/73/58
f 56/75/56 1/82/1 63/83/63
f 6/84/6 62/71/62 69/85/69
f 61/77/61 67/80/67 68/86/68
f 59/78/59 65/81/65 66/87/66
f 56/75/56 64/88/64 57/79/57
f 62/71/62 68/86/68 69/85/69
f 6/89/6 69/85/69 76/90/76
f 68/86/68 74/91/74 75/92/75
f 66/87/66 72/93/72 73/94/73
f 64/88/64 70/95/70 71/96/71
f 68/86/68 76/90/76 69/85/69
f 66/87/66 74/91/74 67/80/67
f 64/88/64 72/93/72 65/81/65
f 63/83/63 1/97/1 70/95/70
f 73/94/73 79/98/79 80/99/80
f 70/95/70 78/100/78 71/96/71
f 76/90/76 82/101/82 83/102/83
f 73/94/73 81/103/81 74/91/74
f 71/96/71 79/98/79 72/93/72
f 70/95/70 1/104/1 77/105/77
f 6/106/6 76/90/76 83/102/83
f 75/92/75 81/103/81 82/101/82
f 82/101/82 90/107/90 83/102/83
f 80/99/80 88/108/88 81/103/81
f 78/100/78 86/109/86 79/98/79
f 77/105/77 1/110/1 84/111/84
f 6/112/6 83/102/83 90/107/90
f 82/101/82 88/108/88 89/113/89
f 80/99/80 86/109/86 87/114/87
f 77/105/77 85/115/85 78/100/78
f 85/116/85 93/117/93 86/118/86
f 84/119/84 1/120/1 91/121/91
f 6/122/6 90/123/90 97/124/97
f 89/125/89 95/126/95 96/127/96
f 87/128/87 93/117/93 94/129/94
f 84/119/84 92/130/92 85/116/85
f 90/123/90 96/127/96 97/124/97
f 87/128/87 95/126/95 88/131/88
f 6/132/6 97/124/97 104/133/104
f 96/127/96 102/134/102 103/135/103
f 94/129/94 100/136/100 101/137/101
f 92/130/92 98/138/98 99/139/99
f 96/127/96 104/133/104 97/124/97
f 94/129/94 102/134/102 95/126/95
f 92/130/92 100/136/100 93/117/93
f 91/121/91 1/140/1 98/138/98
f 98/138/98 106/141/106 99/139/99
f 104/133/104 110/142/110 111/143/111
f 101/137/101 109/144/109 102/134/102
f 99/139/99 107/145/107 100/136/100
f 98/138/98 1/146/1 105/147/105
f 6/148/6 104/133/104 111/143/111
f 103/135/103 109/144/109 110/142/110
f 101/137/101 107/145/107 108/149/108
f 110/142/110 5/3/5 111/143/111
f 108/149/108 4/6/4 109/144/109
f 106/141/106 2/9/2 107/145/107
f 105/147/105 1/150/1 112/10/112
f 6/151/6 111/143/111 5/3/5
f 110/142/110 4/6/4 114/1/114
f 108/149/108 2/9/2 3/4/3
f 105/147/105 113/7/113 106/141/106
f 114/1/114 12/14/12 13/2/13
f 3/4/3 10/15/10 11/5/11
f 113/7/113 8/16/8 9/8/9
f 114/1/114 4/6/4 11/5/11
f 3/4/3 2/9/2 9/8/9
f 113/7/113 112/10/112 7/12/7
f 9/8/9 8/16/8 15/17/15
f 11/5/11 18/25/18 19/23/19
f 10/15/10 9/8/9 16/18/16
f 7/12/7 14/20/14 15/17/15
f 12/14/12 19/23/19 20/22/20
f 10/15/10 17/24/17 18/25/18
f 18/25/18 25/32/25 26/28/26
f 17/24/17 16/18/16 23/29/23
f 14/20/14 21/34/21 22/31/22
f 20/22/20 19/23/19 26/28/26
f 17/24/17 24/30/24 25/32/25
f 16/18/16 15/17/15 22/31/22
f 22/31/22 21/34/21 28/35/28
f 26/28/26 33/42/33 34/37/34
f 24/30/24 31/43/31 32/38/32
f 23/29/23 22/31/22 29/36/29
f 25/32/25 32/38/32 33/42/33
f 24/30/24 23/29/23 30/39/30
f 34/37/34 33/42/33 40/44/40
f 31/43/31 38/51/38 39/46/39
f 29/36/29 36/52/36 37/47/37
f 33/42/33 32/38/32 39/46/39
f 31/43/31 30/39/30 37/47/37
f 28/35/28 35/49/35 36/52/36
f 40/44/40 39/46/39 46/57/46
f 38/51/38 37/47/37 44/59/44
f 35/49/35 42/54/42 43/61/43
f 41/45/41 40/44/40 47/58/47
f 38/51/38 45/60/45 46/57/46
f 36/52/36 43/61/43 44/59/44
f 47/58/47 46/57/46 53/62/53
f 45/60/45 44/59/44 51/64/51
f 43/61/43 42/54/42 49/66/49
f 47/58/47 54/63/54 55/68/55
f 45/60/45 52/65/52 53/62/53
f 43/61/43 50/67/50 51/64/51
f 54/63/54 61/77/61 62/71/62
f 52/65/52 59/78/59 60/72/60
f 50/67/50 57/79/57 58/73/58
f 54/63/54 53/62/53 60/72/60
f 52/65/52 51/64/51 58/73/58
f 50/67/50 49/66/49 56/75/56
f 59/78/59 66/87/66 67/80/67
f 57/79/57 64/88/64 65/81/65
f 61/77/61 60/72/60 67/80/67
f 59/78/59 58/73/58 65/81/65
f 56/75/56 63/83/63 64/88/64
f 62/71/62 61/77/61 68/86/68
f 68/86/68 67/80/67 74/91/74
f 66/87/66 65/81/65 72/93/72
f 64/88/64 63/83/63 70/95/70
f 68/86/68 75/92/75 76/90/76
f 66/87/66 73/94/73 74/91/74
f 64/88/64 71/96/71 72/93/72
f 73/94/73 72/93/72 79/98/79
f 70/95/70 77/105/77 78/100/78
f 76/90/76 75/92/75 82/101/82
f 73/94/73 80/99/80 81/103/81
f 71/96/71 78/100/78 79/98/79
f 75/92/75 74/91/74 81/103/81
f 82/101/82 89/113/89 90/107/90
f 80/99/80 87/114/87 88/108/88
f 78/100/78 85/115/85 86/109/86
f 82/101/82 81/103/81 88/108/88
f 80/99/80 79/98/79 86/109/86
f 77/105/77 84/111/84 85/115/85
f 85/116/85 92/130/92 93/117/93
f 89/125/89 88/131/88 95/126/95
f 87/128/87 86/118/86 93/117/93
f 84/119/84 91/121/91 92/130/92
f 90/123/90 89/125/89 96/127/96
f 87/128/87 94/129/94 95/126/95
f 96/127/96 95/126/95 102/134/102
f 94/129/94 93/117/93 100/136/100
f 92/130/92 91/121/91 98/138/98
f 96/127/96 103/135/103 104/133/104
f 94/129/94 101/137/101 102/134/102
f 92/130/92 99/139/99 100/136/100
f 98/138/98 105/147/105 106/141/106
f 104/133/104 103/135/103 110/142/110
f 101/137/101 108/149/108 109/144/109
f 99/139/99 106/141/106 107/145/107
f 103/135/103 102/134/102 109/144/109
f 101/137/101 100/136/100 107/145/107
f 110/142/110 114/1/114 5/3/5
f 108/149/108 3/4/3 4/6/4
f 106/141/106 113/7/113 2/9/2
f 110/142/110 109/144/109 4/6/4
f 108/149/108 107/145/107 2/9/2
f 105/147/105 112/10/112 113/7/113
usemtl OH_Outline_Material.002
f 127/152/123 228/153/210 119/154/117
f 125/155/121 117/156/59 118/157/116
f 123/158/120 227/159/209 116/160/115
f 226/161/208 121/162/118 115/163/6
f 120/164/1 127/152/123 119/154/117
f 228/153/210 125/155/121 118/157/116
f 117/156/59 123/158/120 116/160/115
f 227/159/209 121/162/118 226/161/208
f 123/158/120 129/165/125 122/166/119
f 121/162/118 128/167/124 115/168/6
f 120/169/1 134/170/129 127/152/123
f 133/171/128 125/155/121 126/172/122
f 124/173/66 130/174/126 123/158/120
f 129/165/125 121/162/118 122/166/119
f 127/152/123 133/171/128 126/172/122
f 132/175/127 124/173/66 125/155/121
f 120/176/1 141/177/135 134/170/129
f 140/178/134 132/175/127 133/171/128
f 131/179/73 137/180/132 130/174/126
f 136/181/131 128/167/124 129/165/125
f 134/170/129 140/178/134 133/171/128
f 139/182/133 131/179/73 132/175/127
f 137/180/132 129/165/125 130/174/126
f 128/167/124 135/183/130 115/184/6
f 136/181/131 142/185/136 135/183/130
f 148/186/141 140/178/134 141/177/135
f 139/182/133 145/187/87 138/188/80
f 137/180/132 143/189/137 136/181/131
f 135/183/130 142/185/136 115/190/6
f 120/191/1 148/186/141 141/177/135
f 147/192/140 139/182/133 140/178/134
f 145/187/87 137/180/132 138/188/80
f 148/186/141 154/193/146 147/192/140
f 146/194/139 152/195/94 145/187/87
f 151/196/144 143/189/137 144/197/138
f 142/185/136 149/198/142 115/199/6
f 120/200/1 155/201/147 148/186/141
f 147/192/140 153/202/145 146/194/139
f 152/195/94 144/197/138 145/187/87
f 150/203/143 142/185/136 143/189/137
f 149/198/142 156/204/148 115/205/6
f 120/206/1 162/207/153 155/201/147
f 161/208/152 153/202/145 154/193/146
f 152/195/94 158/209/150 151/196/144
f 157/210/149 149/198/142 150/203/143
f 155/201/147 161/208/152 154/193/146
f 160/211/151 152/195/94 153/202/145
f 158/209/150 150/203/143 151/196/144
f 161/208/152 167/212/157 160/211/151
f 159/213/101 165/214/156 158/209/150
f 157/210/149 163/215/154 156/204/148
f 169/216/159 161/208/152 162/207/153
f 167/212/157 159/213/101 160/211/151
f 165/214/156 157/210/149 158/209/150
f 156/204/148 163/215/154 115/217/6
f 120/218/1 169/216/159 162/207/153
f 176/219/165 168/220/158 169/216/159
f 174/221/163 166/222/108 167/212/157
f 172/223/162 164/224/155 165/214/156
f 163/215/154 170/225/160 115/226/6
f 120/227/1 176/219/165 169/216/159
f 168/220/158 174/221/163 167/212/157
f 166/222/108 172/223/162 165/214/156
f 164/224/155 170/225/160 163/215/154
f 181/228/169 173/229/3 174/221/163
f 179/230/168 171/231/161 172/223/162
f 170/225/160 177/232/166 115/233/6
f 120/234/1 183/235/171 176/219/165
f 182/236/170 174/221/163 175/237/164
f 173/229/3 179/230/168 172/223/162
f 178/238/167 170/225/160 171/231/161
f 176/219/165 182/236/170 175/237/164
f 120/239/1 190/240/177 183/235/171
f 182/236/170 188/241/175 181/228/169
f 180/242/10 186/243/174 179/230/168
f 178/238/167 184/244/172 177/232/166
f 183/235/171 189/245/176 182/236/170
f 188/241/175 180/242/10 181/228/169
f 186/243/174 178/238/167 179/230/168
f 177/232/166 184/244/172 115/246/6
f 187/247/17 193/248/180 186/243/174
f 192/249/179 184/244/172 185/250/173
f 190/240/177 196/251/182 189/245/176
f 195/252/181 187/247/17 188/241/175
f 193/248/180 185/250/173 186/243/174
f 184/244/172 191/253/178 115/254/6
f 120/255/1 197/256/183 190/240/177
f 189/245/176 195/252/181 188/241/175
f 197/256/183 203/257/188 196/251/182
f 202/258/187 194/259/24 195/252/181
f 200/260/186 192/249/179 193/248/180
f 191/253/178 198/261/184 115/262/6
f 120/263/1 204/264/189 197/256/183
f 196/251/182 202/258/187 195/252/181
f 194/259/24 200/260/186 193/248/180
f 199/265/185 191/253/178 192/249/179
f 207/266/192 199/267/185 200/268/186
f 198/269/184 205/270/190 115/271/6
f 120/272/1 211/273/195 204/274/189
f 203/275/188 209/276/193 202/277/187
f 201/278/31 207/266/192 200/268/186
f 199/267/185 205/270/190 198/269/184
f 211/273/195 203/275/188 204/274/189
f 209/276/193 201/278/31 202/277/187
f 120/279/1 218/280/201 211/273/195
f 210/281/194 216/282/199 209/276/193
f 208/283/38 214/284/198 207/266/192
f 206/285/191 212/286/196 205/270/190
f 218/280/201 210/281/194 211/273/195
f 216/282/199 208/283/38 209/276/193
f 214/284/198 206/285/191 207/266/192
f 205/270/190 212/286/196 115/287/6
f 220/288/203 212/286/196 213/289/197
f 225/290/207 217/291/200 218/280/201
f 223/292/205 215/293/45 216/282/199
f 221/294/204 213/289/197 214/284/198
f 212/286/196 219/295/202 115/296/6
f 120/297/1 225/290/207 218/280/201
f 217/291/200 223/292/205 216/282/199
f 215/293/45 221/294/204 214/284/198
f 119/154/117 224/298/206 225/290/207
f 118/157/116 222/299/52 223/292/205
f 116/160/115 220/288/203 221/294/204
f 219/295/202 226/161/208 115/300/6
f 120/301/1 119/154/117 225/290/207
f 224/298/206 118/157/116 223/292/205
f 222/299/52 116/160/115 221/294/204
f 227/159/209 219/295/202 220/288/203
f 241/302/219 342/303/306 233/304/213
f 239/305/217 231/306/59 232/307/212
f 237/308/216 341/309/305 230/310/211
f 340/311/304 235/312/214 229/313/6
f 234/314/1 241/302/219 233/304/213
f 240/315/218 232/307/212 342/303/306
f 231/306/59 237/308/216 230/310/211
f 341/309/305 235/312/214 340/311/304
f 237/308/216 243/316/221 236/317/215
f 235/312/214 242/318/220 229/319/6
f 234/320/1 248/321/225 241/302/219
f 247/322/224 239/305/217 240/315/218
f 245/323/73 237/308/216 238/324/66
f 243/316/221 235/312/214 236/317/215
f 248/321/225 240/315/218 241/302/219
f 239/305/217 245/323/73 238/324/66
f 234/325/1 255/326/231 248/321/225
f 254/327/230 246/328/223 247/322/224
f 245/323/73 251/329/228 244/330/222
f 243/316/221 249/331/226 242/318/220
f 248/321/225 254/327/230 247/322/224
f 253/332/229 245/323/73 246/328/223
f 244/330/222 250/333/227 243/316/221
f 242/318/220 249/331/226 229/334/6
f 250/333/227 256/335/232 249/331/226
f 262/336/237 254/327/230 255/326/231
f 260/337/235 252/338/80 253/332/229
f 251/329/228 257/339/233 250/333/227
f 249/331/226 256/335/232 229/340/6
f 234/341/1 262/336/237 255/326/231
f 261/342/236 253/332/229 254/327/230
f 252/338/80 258/343/234 251/329/228
f 269/344/243 261/342/236 262/336/237
f 260/337/235 266/345/94 259/346/87
f 265/347/240 257/339/233 258/343/234
f 256/335/232 263/348/238 229/349/6
f 234/350/1 269/344/243 262/336/237
f 261/342/236 267/351/241 260/337/235
f 266/345/94 258/343/234 259/346/87
f 257/339/233 263/348/238 256/335/232
f 263/348/238 270/352/244 229/353/6
f 234/354/1 276/355/249 269/344/243
f 268/356/242 274/357/247 267/351/241
f 273/358/101 265/347/240 266/345/94
f 264/359/239 270/352/244 263/348/238
f 269/344/243 275/360/248 268/356/242
f 274/357/247 266/345/94 267/351/241
f 272/361/246 264/359/239 265/347/240
f 275/360/248 281/362/253 274/357/247
f 273/358/101 279/363/252 272/361/246
f 271/364/245 277/365/250 270/352/244
f 283/366/255 275/360/248 276/355/249
f 281/362/253 273/358/101 274/357/247
f 279/363/252 271/364/245 272/361/246
f 270/352/244 277/365/250 229/367/6
f 234/368/1 283/366/255 276/355/249
f 290/369/261 282/370/254 283/366/255
f 288/371/259 280/372/108 281/362/253
f 286/373/258 278/374/251 279/363/252
f 277/365/250 284/375/256 229/376/6
f 234/377/1 290/369/261 283/366/255
f 282/370/254 288/371/259 281/362/253
f 280/372/108 286/373/258 279/363/252
f 278/374/251 284/375/256 277/365/250
f 295/378/265 287/379/3 288/371/259
f 293/380/264 285/381/257 286/373/258
f 284/375/256 291/382/262 229/383/6
f 234/384/1 297/385/267 290/369/261
f 289/386/260 295/378/265 288/371/259
f 287/379/3 293/380/264 286/373/258
f 292/387/263 284/375/256 285/381/257
f 297/385/267 289/386/260 290/369/261
f 234/388/1 304/389/273 297/385/267
f 296/390/266 302/391/271 295/378/265
f 294/392/10 300/393/270 293/380/264
f 299/394/269 291/382/262 292/387/263
f 297/385/267 303/395/272 296/390/266
f 302/391/271 294/392/10 295/378/265
f 293/380/264 299/394/269 292/387/263
f 291/382/262 298/396/268 229/397/6
f 301/398/17 307/399/276 300/393/270
f 306/400/275 298/396/268 299/394/269
f 304/389/273 310/401/278 303/395/272
f 309/402/277 301/398/17 302/391/271
f 300/393/270 306/400/275 299/394/269
f 298/396/268 305/403/274 229/404/6
f 234/405/1 311/406/279 304/389/273
f 310/401/278 302/391/271 303/395/272
f 318/407/285 310/401/278 311/406/279
f 316/408/283 308/409/24 309/402/277
f 314/410/282 306/400/275 307/399/276
f 305/403/274 312/411/280 229/412/6
f 234/413/1 318/407/285 311/406/279
f 317/414/284 309/402/277 310/401/278
f 308/409/24 314/410/282 307/399/276
f 306/400/275 312/411/280 305/403/274
f 321/415/288 313/416/281 314/417/282
f 312/418/280 319/419/286 229/420/6
f 234/421/1 325/422/291 318/423/285
f 324/424/290 316/425/283 317/426/284
f 315/427/31 321/415/288 314/417/282
f 313/416/281 319/419/286 312/418/280
f 325/422/291 317/426/284 318/423/285
f 323/428/289 315/427/31 316/425/283
f 234/429/1 332/430/297 325/422/291
f 324/424/290 330/431/295 323/428/289
f 322/432/38 328/433/294 321/415/288
f 320/434/287 326/435/292 319/419/286
f 332/430/297 324/424/290 325/422/291
f 330/431/295 322/432/38 323/428/289
f 328/433/294 320/434/287 321/415/288
f 319/419/286 326/435/292 229/436/6
f 334/437/299 326/435/292 327/438/293
f 332/430/297 338/439/302 331/440/296
f 337/441/301 329/442/45 330/431/295
f 335/443/300 327/438/293 328/433/294
f 326/435/292 333/444/298 229/445/6
f 234/446/1 339/447/303 332/430/297
f 331/440/296 337/441/301 330/431/295
f 329/442/45 335/443/300 328/433/294
f 339/447/303 342/303/306 338/439/302
f 232/307/212 336/448/52 337/441/301
f 230/310/211 334/437/299 335/443/300
f 333/444/298 340/311/304 229/449/6
f 234/450/1 233/304/213 339/447/303
f 338/439/302 232/307/212 337/441/301
f 336/448/52 230/310/211 335/443/300
f 341/309/305 333/444/298 334/437/299
f 355/451/315 456/452/402 347/453/309
f 353/454/313 345/455/59 346/456/308
f 351/457/312 455/458/401 344/459/307
f 454/460/400 349/461/310 343/462/6
f 348/463/1 355/451/315 347/453/309
f 456/452/402 353/454/313 346/456/308
f 345/455/59 351/457/312 344/459/307
f 350/464/311 454/460/400 455/458/401
f 351/457/312 357/465/317 350/464/311
f 349/461/310 356/466/316 343/467/6
f 348/468/1 362/469/321 355/451/315
f 361/470/320 353/454/313 354/471/314
f 352/472/66 358/473/318 351/457/312
f 357/465/317 349/461/310 350/464/311
f 355/451/315 361/470/320 354/471/314
f 360/474/319 352/472/66 353/454/313
f 348/475/1 369/476/327 362/469/321
f 368/477/326 360/474/319 361/470/320
f 359/478/73 365/479/324 358/473/318
f 357/465/317 363/480/322 356/466/316
f 362/469/321 368/477/326 361/470/320
f 367/481/325 359/478/73 360/474/319
f 358/473/318 364/482/323 357/465/317
f 356/466/316 363/480/322 343/483/6
f 364/482/323 370/484/328 363/480/322
f 376/485/333 368/477/326 369/476/327
f 374/486/331 366/487/80 367/481/325
f 365/479/324 371/488/329 364/482/323
f 363/480/322 370/484/328 343/489/6
f 348/490/1 376/485/333 369/476/327
f 375/491/332 367/481/325 368/477/326
f 366/487/80 372/492/330 365/479/324
f 383/493/339 375/491/332 376/485/333
f 374/486/331 380/494/94 373/495/87
f 379/496/336 371/488/329 372/492/330
f 370/484/328 377/497/334 343/498/6
f 348/499/1 383/493/339 376/485/333
f 375/491/332 381/500/337 374/486/331
f 380/494/94 372/492/330 373/495/87
f 371/488/329 377/497/334 370/484/328
f 377/497/334 384/501/340 343/502/6
f 348/503/1 390/504/345 383/493/339
f 382/505/338 388/506/343 381/500/337
f 387/507/101 379/496/336 380/494/94
f 385/508/341 377/497/334 378/509/335
f 383/493/339 389/510/344 382/505/338
f 381/500/337 387/507/101 380/494/94
f 386/511/342 378/509/335 379/496/336
f 389/510/344 395/512/349 388/506/343
f 387/507/101 393/513/348 386/511/342
f 385/508/341 391/514/346 384/501/340
f 397/515/351 389/510/344 390/504/345
f 395/512/349 387/507/101 388/506/343
f 393/513/348 385/508/341 386/511/342
f 384/501/340 391/514/346 343/516/6
f 348/517/1 397/515/351 390/504/345
f 404/518/357 396/519/350 397/515/351
f 402/520/355 394/521/108 395/512/349
f 400/522/354 392/523/347 393/513/348
f 391/514/346 398/524/352 343/525/6
f 348/526/1 404/518/357 397/515/351
f 396/519/350 402/520/355 395/512/349
f 394/521/108 400/522/354 393/513/348
f 399/527/353 391/514/346 392/523/347
f 409/528/361 401/529/3 402/520/355
f 400/522/354 406/530/359 399/527/353
f 398/524/352 405/531/358 343/532/6
f 348/533/1 411/534/363 404/518/357
f 403/535/356 409/528/361 402/520/355
f 401/529/3 407/536/360 400/522/354
f 406/530/359 398/524/352 399/527/353
f 404/518/357 410/537/362 403/535/356
f 348/538/1 418/539/369 411/534/363
f 410/537/362 416/540/367 409/528/361
f 408/541/10 414/542/366 407/536/360
f 413/543/365 405/531/358 406/530/359
f 411/534/363 417/544/368 410/537/362
f 416/540/367 408/541/10 409/528/361
f 407/536/360 413/543/365 406/530/359
f 405/531/358 412/545/364 343/546/6
f 415/547/17 421/548/372 414/542/366
f 420/549/371 412/545/364 413/543/365
f 418/539/369 424/550/374 417/544/368
f 423/551/373 415/547/17 416/540/367
f 421/548/372 413/543/365 414/542/366
f 412/545/364 419/552/370 343/553/6
f 348/554/1 425/555/375 418/539/369
f 417/544/368 423/551/373 416/540/367
f 432/556/381 424/550/374 425/555/375
f 430/557/379 422/558/24 423/551/373
f 428/559/378 420/549/371 421/548/372
f 419/552/370 426/560/376 343/561/6
f 348/562/1 432/556/381 425/555/375
f 424/550/374 430/557/379 423/551/373
f 422/558/24 428/559/378 421/548/372
f 420/549/371 426/560/376 419/552/370
f 428/563/378 434/564/383 427/565/377
f 426/566/376 433/567/382 343/568/6
f 348/569/1 439/570/387 432/571/381
f 438/572/386 430/573/379 431/574/380
f 429/575/31 435/576/384 428/563/378
f 427/565/377 433/567/382 426/566/376
f 439/570/387 431/574/380 432/571/381
f 437/577/385 429/575/31 430/573/379
f 348/578/1 446/579/393 439/570/387
f 438/572/386 444/580/391 437/577/385
f 436/581/38 442/582/390 435/576/384
f 434/564/383 440/583/388 433/567/382
f 439/570/387 445/584/392 438/572/386
f 444/580/391 436/581/38 437/577/385
f 442/582/390 434/564/383 435/576/384
f 433/567/382 440/583/388 343/585/6
f 448/586/395 440/583/388 441/587/389
f 453/588/399 445/584/392 446/579/393
f 451/589/397 443/590/45 444/580/391
f 449/591/396 441/587/389 442/582/390
f 440/583/388 447/592/394 343/593/6
f 348/594/1 453/588/399 446/579/393
f 445/584/392 451/589/397 444/580/391
f 443/590/45 449/591/396 442/582/390
f 453/588/399 456/452/402 452/595/398
f 346/456/308 450/596/52 451/589/397
f 344/459/307 448/586/395 449/591/396
f 447/592/394 454/460/400 343/597/6
f 348/598/1 347/453/309 453/588/399
f 452/595/398 346/456/308 451/589/397
f 450/596/52 344/459/307 449/591/396
f 455/458/401 447/592/394 448/586/395
f 461/599/405 468/600/410 570/601/498
f 460/602/404 466/603/66 459/604/59
f 465/605/408 569/606/497 458/607/403
f 568/608/496 463/609/406 457/610/6
f 462/611/1 469/612/411 461/599/405
f 570/601/498 467/613/409 460/602/404
f 466/603/66 458/607/403 459/604/59
f 569/606/497 463/609/406 568/608/496
f 472/614/414 464/615/407 465/605/408
f 463/609/406 470/616/412 457/617/6
f 462/618/1 476/619/417 469/612/411
f 468/600/410 474/620/415 467/613/409
f 473/621/73 465/605/408 466/603/66
f 464/615/407 470/616/412 463/609/406
f 476/619/417 468/600/410 469/612/411
f 467/613/409 473/621/73 466/603/66
f 462/622/1 483/623/423 476/619/417
f 482/624/422 474/620/415 475/625/416
f 480/626/80 472/614/414 473/621/73
f 478/627/419 470/616/412 471/628/413
f 483/623/423 475/625/416 476/619/417
f 474/620/415 480/626/80 473/621/73
f 472/614/414 478/627/419 471/628/413
f 470/616/412 477/629/418 457/630/6
f 485/631/425 477/629/418 478/627/419
f 490/632/429 482/624/422 483/623/423
f 481/633/421 487/634/87 480/626/80
f 486/635/426 478/627/419 479/636/420
f 477/629/418 484/637/424 457/638/6
f 462/639/1 490/632/429 483/623/423
f 489/640/428 481/633/421 482/624/422
f 480/626/80 486/635/426 479/636/420
f 490/632/429 496/641/434 489/640/428
f 495/642/433 487/634/87 488/643/427
f 493/644/432 485/631/425 486/635/426
f 484/637/424 491/645/430 457/646/6
f 462/647/1 497/648/435 490/632/429
f 496/641/434 488/643/427 489/640/428
f 487/634/87 493/644/432 486/635/426
f 492/649/431 484/637/424 485/631/425
f 491/645/430 498/650/436 457/651/6
f 462/652/1 504/653/441 497/648/435
f 503/654/440 495/642/433 496/641/434
f 494/655/94 500/656/438 493/644/432
f 492/649/431 498/650/436 491/645/430
f 504/653/441 496/641/434 497/648/435
f 502/657/439 494/655/94 495/642/433
f 493/644/432 499/658/437 492/649/431
f 510/659/446 502/657/439 503/654/440
f 508/660/108 500/656/438 501/661/101
f 506/662/443 498/650/436 499/658/437
f 511/663/447 503/654/440 504/653/441
f 509/664/445 501/661/101 502/657/439
f 500/656/438 506/662/443 499/658/437
f 498/650/436 505/665/442 457/666/6
f 462/667/1 511/663/447 504/653/441
f 511/663/447 517/668/452 510/659/446
f 516/669/451 508/660/108 509/664/445
f 507/670/444 513/671/449 506/662/443
f 505/665/442 512/672/448 457/673/6
f 462/674/1 518/675/453 511/663/447
f 517/668/452 509/664/445 510/659/446
f 508/660/108 514/676/450 507/670/444
f 506/662/443 512/672/448 505/665/442
f 516/669/451 522/677/10 515/678/3
f 514/676/450 520/679/455 513/671/449
f 512/672/448 519/680/454 457/681/6
f 462/682/1 525/683/459 518/675/453
f 517/668/452 523/684/457 516/669/451
f 515/678/3 521/685/456 514/676/450
f 520/679/455 512/672/448 513/671/449
f 525/683/459 517/668/452 518/675/453
f 462/686/1 532/687/465 525/683/459
f 524/688/458 530/689/463 523/684/457
f 529/690/17 521/685/456 522/677/10
f 527/691/461 519/680/454 520/679/455
f 532/687/465 524/688/458 525/683/459
f 523/684/457 529/690/17 522/677/10
f 528/692/462 520/679/455 521/685/456
f 519/680/454 526/693/460 457/694/6
f 536/695/24 528/692/462 529/690/17
f 527/691/461 533/696/466 526/693/460
f 532/687/465 538/697/470 531/698/464
f 537/699/469 529/690/17 530/689/463
f 528/692/462 534/700/467 527/691/461
f 526/693/460 533/696/466 457/701/6
f 462/702/1 539/703/471 532/687/465
f 538/697/470 530/689/463 531/698/464
f 539/703/471 545/704/476 538/697/470
f 544/705/475 536/695/24 537/699/469
f 535/706/468 541/707/473 534/700/467
f 533/696/466 540/708/472 457/709/6
f 462/710/1 546/711/477 539/703/471
f 545/704/476 537/699/469 538/697/470
f 536/695/24 542/712/474 535/706/468
f 541/707/473 533/696/466 534/700/467
f 542/713/474 548/714/479 541/715/473
f 540/716/472 547/717/478 457/718/6
f 462/719/1 553/720/483 546/721/477
f 545/722/476 551/723/481 544/724/475
f 550/725/38 542/713/474 543/726/31
f 548/714/479 540/716/472 541/715/473
f 546/721/477 552/727/482 545/722/476
f 551/723/481 543/726/31 544/724/475
f 462/728/1 560/729/489 553/720/483
f 559/730/488 551/723/481 552/727/482
f 557/731/45 549/732/480 550/725/38
f 548/714/479 554/733/484 547/717/478
f 560/729/489 552/727/482 553/720/483
f 551/723/481 557/731/45 550/725/38
f 556/734/486 548/714/479 549/732/480
f 547/717/478 554/733/484 457/735/6
f 562/736/491 554/733/484 555/737/485
f 567/738/495 559/730/488 560/729/489
f 565/739/493 557/731/45 558/740/487
f 556/734/486 562/736/491 555/737/485
f 554/733/484 561/741/490 457/742/6
f 462/743/1 567/738/495 560/729/489
f 566/744/494 558/740/487 559/730/488
f 557/731/45 563/745/492 556/734/486
f 567/738/495 570/601/498 566/744/494
f 565/739/493 459/604/59 564/746/52
f 563/745/492 569/606/497 562/736/491
f 561/741/490 568/608/496 457/747/6
f 462/748/1 461/599/405 567/738/495
f 570/601/498 565/739/493 566/744/494
f 459/604/59 563/745/492 564/746/52
f 562/736/491 568/608/496 561/741/490
f 127/152/123 126/172/122 228/153/210
f 125/155/121 124/173/66 117/156/59
f 123/158/120 122/166/119 227/159/209
f 228/153/210 126/172/122 125/155/121
f 117/156/59 124/173/66 123/158/120
f 227/159/209 122/166/119 121/162/118
f 123/158/120 130/174/126 129/165/125
f 133/171/128 132/175/127 125/155/121
f 124/173/66 131/179/73 130/174/126
f 129/165/125 128/167/124 121/162/118
f 127/152/123 134/170/129 133/171/128
f 132/175/127 131/179/73 124/173/66
f 140/178/134 139/182/133 132/175/127
f 131/179/73 138/188/80 137/180/132
f 136/181/131 135/183/130 128/167/124
f 134/170/129 141/177/135 140/178/134
f 139/182/133 138/188/80 131/179/73
f 137/180/132 136/181/131 129/165/125
f 136/181/131 143/189/137 142/185/136
f 148/186/141 147/192/140 140/178/134
f 139/182/133 146/194/139 145/187/87
f 137/180/132 144/197/138 143/189/137
f 147/192/140 146/194/139 139/182/133
f 145/187/87 144/197/138 137/180/132
f 148/186/141 155/201/147 154/193/146
f 146/194/139 153/202/145 152/195/94
f 151/196/144 150/203/143 143/189/137
f 147/192/140 154/193/146 153/202/145
f 152/195/94 151/196/144 144/197/138
f 150/203/143 149/198/142 142/185/136
f 161/208/152 160/211/151 153/202/145
f 152/195/94 159/213/101 158/209/150
f 157/210/149 156/204/148 149/198/142
f 155/201/147 162/207/153 161/208/152
f 160/211/151 159/213/101 152/195/94
f 158/209/150 157/210/149 150/203/143
f 161/208/152 168/220/158 167/212/157
f 159/213/101 166/222/108 165/214/156
f 157/210/149 164/224/155 163/215/154
f 169/216/159 168/220/158 161/208/152
f 167/212/157 166/222/108 159/213/101
f 165/214/156 164/224/155 157/210/149
f 176/219/165 175/237/164 168/220/158
f 174/221/163 173/229/3 166/222/108
f 172/223/162 171/231/161 164/224/155
f 168/220/158 175/237/164 174/221/163
f 166/222/108 173/229/3 172/223/162
f 164/224/155 171/231/161 170/225/160
f 181/228/169 180/242/10 173/229/3
f 179/230/168 178/238/167 171/231/161
f 182/236/170 181/228/169 174/221/163
f 173/229/3 180/242/10 179/230/168
f 178/238/167 177/232/166 170/225/160
f 176/219/165 183/235/171 182/236/170
f 182/236/170 189/245/176 188/241/175
f 180/242/10 187/247/17 186/243/174
f 178/238/167 185/250/173 184/244/172
f 183/235/171 190/240/177 189/245/176
f 188/241/175 187/247/17 180/242/10
f 186/243/174 185/250/173 178/238/167
f 187/247/17 194/259/24 193/248/180
f 192/249/179 191/253/178 184/244/172
f 190/240/177 197/256/183 196/251/182
f 195/252/181 194/259/24 187/247/17
f 193/248/180 192/249/179 185/250/173
f 189/245/176 196/251/182 195/252/181
f 197/256/183 204/264/189 203/257/188
f 202/258/187 201/749/31 194/259/24
f 200/260/186 199/265/185 192/249/179
f 196/251/182 203/257/188 202/258/187
f 194/259/24 201/749/31 200/260/186
f 199/265/185 198/261/184 191/253/178
f 207/266/192 206/285/191 199/267/185
f 203/275/188 210/281/194 209/276/193
f 201/278/31 208/283/38 207/266/192
f 199/267/185 206/285/191 205/270/190
f 211/273/195 210/281/194 203/275/188
f 209/276/193 208/283/38 201/278/31
f 210/281/194 217/291/200 216/282/199
f 208/283/38 215/293/45 214/284/198
f 206/285/191 213/289/197 212/286/196
f 218/280/201 217/291/200 210/281/194
f 216/282/199 215/293/45 208/283/38
f 214/284/198 213/289/197 206/285/191
f 220/288/203 219/295/202 212/286/196
f 225/290/207 224/298/206 217/291/200
f 223/292/205 222/299/52 215/293/45
f 221/294/204 220/288/203 213/289/197
f 217/291/200 224/298/206 223/292/205
f 215/293/45 222/299/52 221/294/204
f 119/154/117 228/153/210 224/298/206
f 118/157/116 117/156/59 222/299/52
f 116/160/115 227/159/209 220/288/203
f 224/298/206 228/153/210 118/157/116
f 222/299/52 117/156/59 116/160/115
f 227/159/209 226/161/208 219/295/202
f 241/302/219 240/315/218 342/303/306
f 239/305/217 238/324/66 231/306/59
f 237/308/216 236/317/215 341/309/305
f 240/315/218 239/305/217 232/307/212
f 231/306/59 238/324/66 237/308/216
f 341/309/305 236/317/215 235/312/214
f 237/308/216 244/330/222 243/316/221
f 247/322/224 246/328/223 239/305/217
f 245/323/73 244/330/222 237/308/216
f 243/316/221 242/318/220 235/312/214
f 248/321/225 247/322/224 240/315/218
f 239/305/217 246/328/223 245/323/73
f 254/327/230 253/332/229 246/328/223
f 245/323/73 252/338/80 251/329/228
f 243/316/221 250/333/227 249/331/226
f 248/321/225 255/326/231 254/327/230
f 253/332/229 252/338/80 245/323/73
f 244/330/222 251/329/228 250/333/227
f 250/333/227 257/339/233 256/335/232
f 262/336/237 261/342/236 254/327/230
f 260/337/235 259/346/87 252/338/80
f 251/329/228 258/343/234 257/339/233
f 261/342/236 260/337/235 253/332/229
f 252/338/80 259/346/87 258/343/234
f 269/344/243 268/356/242 261/342/236
f 260/337/235 267/351/241 266/345/94
f 265/347/240 264/359/239 257/339/233
f 261/342/236 268/356/242 267/351/241
f 266/345/94 265/347/240 258/343/234
f 257/339/233 264/359/239 263/348/238
f 268/356/242 275/360/248 274/357/247
f 273/358/101 272/361/246 265/347/240
f 264/359/239 271/364/245 270/352/244
f 269/344/243 276/355/249 275/360/248
f 274/357/247 273/358/101 266/345/94
f 272/361/246 271/364/245 264/359/239
f 275/360/248 282/370/254 281/362/253
f 273/358/101 280/372/108 279/363/252
f 271/364/245 278/374/251 277/365/250
f 283/366/255 282/370/254 275/360/248
f 281/362/253 280/372/108 273/358/101
f 279/363/252 278/374/251 271/364/245
f 290/369/261 289/386/260 282/370/254
f 288/371/259 287/379/3 280/372/108
f 286/373/258 285/381/257 278/374/251
f 282/370/254 289/386/260 288/371/259
f 280/372/108 287/379/3 286/373/258
f 278/374/251 285/381/257 284/375/256
f 295/378/265 294/392/10 287/379/3
f 293/380/264 292/387/263 285/381/257
f 289/386/260 296/390/266 295/378/265
f 287/379/3 294/392/10 293/380/264
f 292/387/263 291/382/262 284/375/256
f 297/385/267 296/390/266 289/386/260
f 296/390/266 303/395/272 302/391/271
f 294/392/10 301/398/17 300/393/270
f 299/394/269 298/396/268 291/382/262
f 297/385/267 304/389/273 303/395/272
f 302/391/271 301/398/17 294/392/10
f 293/380/264 300/393/270 299/394/269
f 301/398/17 308/409/24 307/399/276
f 306/400/275 305/403/274 298/396/268
f 304/389/273 311/406/279 310/401/278
f 309/402/277 308/409/24 301/398/17
f 300/393/270 307/399/276 306/400/275
f 310/401/278 309/402/277 302/391/271
f 318/407/285 317/414/284 310/401/278
f 316/408/283 315/750/31 308/409/24
f 314/410/282 313/751/281 306/400/275
f 317/414/284 316/408/283 309/402/277
f 308/409/24 315/750/31 314/410/282
f 306/400/275 313/751/281 312/411/280
f 321/415/288 320/434/287 313/416/281
f 324/424/290 323/428/289 316/425/283
f 315/427/31 322/432/38 321/415/288
f 313/416/281 320/434/287 319/419/286
f 325/422/291 324/424/290 317/426/284
f 323/428/289 322/432/38 315/427/31
f 324/424/290 331/440/296 330/431/295
f 322/432/38 329/442/45 328/433/294
f 320/434/287 327/438/293 326/435/292
f 332/430/297 331/440/296 324/424/290
f 330/431/295 329/442/45 322/432/38
f 328/433/294 327/438/293 320/434/287
f 334/437/299 333/444/298 326/435/292
f 332/430/297 339/447/303 338/439/302
f 337/441/301 336/448/52 329/442/45
f 335/443/300 334/437/299 327/438/293
f 331/440/296 338/439/302 337/441/301
f 329/442/45 336/448/52 335/443/300
f 339/447/303 233/304/213 342/303/306
f 232/307/212 231/306/59 336/448/52
f 230/310/211 341/309/305 334/437/299
f 338/439/302 342/303/306 232/307/212
f 336/448/52 231/306/59 230/310/211
f 341/309/305 340/311/304 333/444/298
f 355/451/315 354/471/314 456/452/402
f 353/454/313 352/472/66 345/455/59
f 351/457/312 350/464/311 455/458/401
f 456/452/402 354/471/314 353/454/313
f 345/455/59 352/472/66 351/457/312
f 350/464/311 349/461/310 454/460/400
f 351/457/312 358/473/318 357/465/317
f 361/470/320 360/474/319 353/454/313
f 352/472/66 359/478/73 358/473/318
f 357/465/317 356/466/316 349/461/310
f 355/451/315 362/469/321 361/470/320
f 360/474/319 359/478/73 352/472/66
f 368/477/326 367/481/325 360/474/319
f 359/478/73 366/487/80 365/479/324
f 357/465/317 364/482/323 363/480/322
f 362/469/321 369/476/327 368/477/326
f 367/481/325 366/487/80 359/478/73
f 358/473/318 365/479/324 364/482/323
f 364/482/323 371/488/329 370/484/328
f 376/485/333 375/491/332 368/477/326
f 374/486/331 373/495/87 366/487/80
f 365/479/324 372/492/330 371/488/329
f 375/491/332 374/486/331 367/481/325
f 366/487/80 373/495/87 372/492/330
f 383/493/339 382/505/338 375/491/332
f 374/486/331 381/500/337 380/494/94
f 379/496/336 378/509/335 371/488/329
f 375/491/332 382/505/338 381/500/337
f 380/494/94 379/496/336 372/492/330
f 371/488/329 378/509/335 377/497/334
f 382/505/338 389/510/344 388/506/343
f 387/507/101 386/511/342 379/496/336
f 385/508/341 384/501/340 377/497/334
f 383/493/339 390/504/345 389/510/344
f 381/500/337 388/506/343 387/507/101
f 386/511/342 385/508/341 378/509/335
f 389/510/344 396/519/350 395/512/349
f 387/507/101 394/521/108 393/513/348
f 385/508/341 392/523/347 391/514/346
f 397/515/351 396/519/350 389/510/344
f 395/512/349 394/521/108 387/507/101
f 393/513/348 392/523/347 385/508/341
f 404/518/357 403/535/356 396/519/350
f 402/520/355 401/529/3 394/521/108
f 400/522/354 399/527/353 392/523/347
f 396/519/350 403/535/356 402/520/355
f 394/521/108 401/529/3 400/522/354
f 399/527/353 398/524/352 391/514/346
f 409/528/361 408/541/10 401/529/3
f 400/522/354 407/536/360 406/530/359
f 403/535/356 410/537/362 409/528/361
f 401/529/3 408/541/10 407/536/360
f 406/530/359 405/531/358 398/524/352
f 404/518/357 411/534/363 410/537/362
f 410/537/362 417/544/368 416/540/367
f 408/541/10 415/547/17 414/542/366
f 413/543/365 412/545/364 405/531/358
f 411/534/363 418/539/369 417/544/368
f 416/540/367 415/547/17 408/541/10
f 407/536/360 414/542/366 413/543/365
f 415/547/17 422/558/24 421/548/372
f 420/549/371 419/552/370 412/545/364
f 418/539/369 425/555/375 424/550/374
f 423/551/373 422/558/24 415/547/17
f 421/548/372 420/549/371 413/543/365
f 417/544/368 424/550/374 423/551/373
f 432/556/381 431/752/380 424/550/374
f 430/557/379 429/753/31 422/558/24
f 428/559/378 427/754/377 420/549/371
f 424/550/374 431/752/380 430/557/379
f 422/558/24 429/753/31 428/559/378
f 420/549/371 427/754/377 426/560/376
f 428/563/378 435/576/384 434/564/383
f 438/572/386 437/577/385 430/573/379
f 429/575/31 436/581/38 435/576/384
f 427/565/377 434/564/383 433/567/382
f 439/570/387 438/572/386 431/574/380
f 437/577/385 436/581/38 429/575/31
f 438/572/386 445/584/392 444/580/391
f 436/581/38 443/590/45 442/582/390
f 434/564/383 441/587/389 440/583/388
f 439/570/387 446/579/393 445/584/392
f 444/580/391 443/590/45 436/581/38
f 442/582/390 441/587/389 434/564/383
f 448/586/395 447/592/394 440/583/388
f 453/588/399 452/595/398 445/584/392
f 451/589/397 450/596/52 443/590/45
f 449/591/396 448/586/395 441/587/389
f 445/584/392 452/595/398 451/589/397
f 443/590/45 450/596/52 449/591/396
f 453/588/399 347/453/309 456/452/402
f 346/456/308 345/455/59 450/596/52
f 344/459/307 455/458/401 448/586/395
f 452/595/398 456/452/402 346/456/308
f 450/596/52 345/455/59 344/459/307
f 455/458/401 454/460/400 447/592/394
f 461/599/405 469/612/411 468/600/410
f 460/602/404 467/613/409 466/603/66
f 465/605/408 464/615/407 569/606/497
f 570/601/498 468/600/410 467/613/409
f 466/603/66 465/605/408 458/607/403
f 569/606/497 464/615/407 463/609/406
f 472/614/414 471/628/413 464/615/407
f 468/600/410 475/625/416 474/620/415
f 473/621/73 472/614/414 465/605/408
f 464/615/407 471/628/413 470/616/412
f 476/619/417 475/625/416 468/600/410
f 467/613/409 474/620/415 473/621/73
f 482/624/422 481/633/421 474/620/415
f 480/626/80 479/636/420 472/614/414
f 478/627/419 477/629/418 470/616/412
f 483/623/423 482/624/422 475/625/416
f 474/620/415 481/633/421 480/626/80
f 472/614/414 479/636/420 478/627/419
f 485/631/425 484/637/424 477/629/418
f 490/632/429 489/640/428 482/624/422
f 481/633/421 488/643/427 487/634/87
f 486/635/426 485/631/425 478/627/419
f 489/640/428 488/643/427 481/633/421
f 480/626/80 487/634/87 486/635/426
f 490/632/429 497/648/435 496/641/434
f 495/642/433 494/655/94 487/634/87
f 493/644/432 492/649/431 485/631/425
f 496/641/434 495/642/433 488/643/427
f 487/634/87 494/655/94 493/644/432
f 492/649/431 491/645/430 484/637/424
f 503/654/440 502/657/439 495/642/433
f 494/655/94 501/661/101 500/656/438
f 492/649/431 499/658/437 498/650/436
f 504/653/441 503/654/440 496/641/434
f 502/657/439 501/661/101 494/655/94
f 493/644/432 500/656/438 499/658/437
f 510/659/446 509/664/445 502/657/439
f 508/660/108 507/670/444 500/656/438
f 506/662/443 505/665/442 498/650/436
f 511/663/447 510/659/446 503/654/440
f 509/664/445 508/660/108 501/661/101
f 500/656/438 507/670/444 506/662/443
f 511/663/447 518/675/453 517/668/452
f 516/669/451 515/678/3 508/660/108
f 507/670/444 514/676/450 513/671/449
f 517/668/452 516/669/451 509/664/445
f 508/660/108 515/678/3 514/676/450
f 506/662/443 513/671/449 512/672/448
f 516/669/451 523/684/457 522/677/10
f 514/676/450 521/685/456 520/679/455
f 517/668/452 524/688/458 523/684/457
f 515/678/3 522/677/10 521/685/456
f 520/679/455 519/680/454 512/672/448
f 525/683/459 524/688/458 517/668/452
f 524/688/458 531/698/464 530/689/463
f 529/690/17 528/692/462 521/685/456
f 527/691/461 526/693/460 519/680/454
f 532/687/465 531/698/464 524/688/458
f 523/684/457 530/689/463 529/690/17
f 528/692/462 527/691/461 520/679/455
f 536/695/24 535/706/468 528/692/462
f 527/691/461 534/700/467 533/696/466
f 532/687/465 539/703/471 538/697/470
f 537/699/469 536/695/24 529/690/17
f 528/692/462 535/706/468 534/700/467
f 538/697/470 537/699/469 530/689/463
f 539/703/471 546/711/477 545/704/476
f 544/705/475 543/755/31 536/695/24
f 535/706/468 542/712/474 541/707/473
f 545/704/476 544/705/475 537/699/469
f 536/695/24 543/755/31 542/712/474
f 541/707/473 540/708/472 533/696/466
f 542/713/474 549/732/480 548/714/479
f 545/722/476 552/727/482 551/723/481
f 550/725/38 549/732/480 542/713/474
f 548/714/479 547/717/478 540/716/472
f 546/721/477 553/720/483 552/727/482
f 551/723/481 550/725/38 543/726/31
f 559/730/488 558/740/487 551/723/481
f 557/731/45 556/734/486 549/732/480
f 548/714/479 555/737/485 554/733/484
f 560/729/489 559/730/488 552/727/482
f 551/723/481 558/740/487 557/731/45
f 556/734/486 555/737/485 548/714/479
f 562/736/491 561/741/490 554/733/484
f 567/738/495 566/744/494 559/730/488
f 565/739/493 564/746/52 557/731/45
f 556/734/486 563/745/492 562/736/491
f 566/744/494 565/739/493 558/740/487
f 557/731/45 564/746/52 563/745/492
f 567/738/495 461/599/405 570/601/498
f 565/739/493 460/602/404 459/604/59
f 563/745/492 458/607/403 569/606/497
f 570/601/498 460/602/404 565/739/493
f 459/604/59 458/607/403 563/745/492
f 562/736/491 569/606/497 568/608/496
